<?xml version="1.0" encoding="utf-8" standalone="no"?>
<!DOCTYPE svg PUBLIC "-//W3C//DTD SVG 1.1//EN"
  "http://www.w3.org/Graphics/SVG/1.1/DTD/svg11.dtd">
<svg xmlns:xlink="http://www.w3.org/1999/xlink" width="460.8pt" height="345.6pt" viewBox="0 0 460.8 345.6" xmlns="http://www.w3.org/2000/svg" version="1.1">
 <metadata>
  <rdf:RDF xmlns:dc="http://purl.org/dc/elements/1.1/" xmlns:cc="http://creativecommons.org/ns#" xmlns:rdf="http://www.w3.org/1999/02/22-rdf-syntax-ns#">
   <cc:Work>
    <dc:type rdf:resource="http://purl.org/dc/dcmitype/StillImage"/>
    <dc:date>2024-02-13T15:06:21.161324</dc:date>
    <dc:format>image/svg+xml</dc:format>
    <dc:creator>
     <cc:Agent>
      <dc:title>Matplotlib v3.8.2, https://matplotlib.org/</dc:title>
     </cc:Agent>
    </dc:creator>
   </cc:Work>
  </rdf:RDF>
 </metadata>
 <defs>
  <style type="text/css">*{stroke-linejoin: round; stroke-linecap: butt}</style>
 </defs>
 <g id="figure_1">
  <g id="patch_1">
   <path d="M 0 345.6 
L 460.8 345.6 
L 460.8 0 
L 0 0 
z
" style="fill: #ffffff"/>
  </g>
  <g id="axes_1">
   <g id="patch_2">
    <path d="M 103.104 307.584 
L 369.216 307.584 
L 369.216 41.472 
L 103.104 41.472 
z
" style="fill: #ffffff"/>
   </g>
   <g id="patch_3">
    <path d="M 149.76 295.488 
C 158.925419 295.488 167.71668 291.84654 174.19761 285.36561 
C 180.67854 278.88468 184.32 270.093419 184.32 260.928 
C 184.32 251.762581 180.67854 242.97132 174.19761 236.49039 
C 167.71668 230.00946 158.925419 226.368 149.76 226.368 
C 140.594581 226.368 131.80332 230.00946 125.32239 236.49039 
C 118.84146 242.97132 115.2 251.762581 115.2 260.928 
C 115.2 270.093419 118.84146 278.88468 125.32239 285.36561 
C 131.80332 291.84654 140.594581 295.488 149.76 295.488 
z
" clip-path="url(#p5efdb67f7c)" style="fill: #ff0000; stroke: #ff0000; stroke-linejoin: miter"/>
   </g>
   <g id="PathCollection_1">
    <defs>
     <path id="m4bff4e75b0" d="M 0 1.118034 
C 0.296506 1.118034 0.580908 1.000231 0.790569 0.790569 
C 1.000231 0.580908 1.118034 0.296506 1.118034 0 
C 1.118034 -0.296506 1.000231 -0.580908 0.790569 -0.790569 
C 0.580908 -1.000231 0.296506 -1.118034 0 -1.118034 
C -0.296506 -1.118034 -0.580908 -1.000231 -0.790569 -0.790569 
C -1.000231 -0.580908 -1.118034 -0.296506 -1.118034 0 
C -1.118034 0.296506 -1.000231 0.580908 -0.790569 0.790569 
C -0.580908 1.000231 -0.296506 1.118034 0 1.118034 
z
" style="stroke: #000000"/>
    </defs>
    <g clip-path="url(#p5efdb67f7c)">
     <use xlink:href="#m4bff4e75b0" x="149.76" y="260.928" style="stroke: #000000"/>
    </g>
   </g>
   <g id="patch_4">
    <path d="M 149.76 209.088 
C 158.925419 209.088 167.71668 205.44654 174.19761 198.96561 
C 180.67854 192.48468 184.32 183.693419 184.32 174.528 
C 184.32 165.362581 180.67854 156.57132 174.19761 150.09039 
C 167.71668 143.60946 158.925419 139.968 149.76 139.968 
C 140.594581 139.968 131.80332 143.60946 125.32239 150.09039 
C 118.84146 156.57132 115.2 165.362581 115.2 174.528 
C 115.2 183.693419 118.84146 192.48468 125.32239 198.96561 
C 131.80332 205.44654 140.594581 209.088 149.76 209.088 
z
" clip-path="url(#p5efdb67f7c)" style="fill: #ff0000; stroke: #ff0000; stroke-linejoin: miter"/>
   </g>
   <g id="PathCollection_2">
    <g clip-path="url(#p5efdb67f7c)">
     <use xlink:href="#m4bff4e75b0" x="149.76" y="174.528" style="stroke: #000000"/>
    </g>
   </g>
   <g id="patch_5">
    <path d="M 149.76 122.688 
C 158.925419 122.688 167.71668 119.04654 174.19761 112.56561 
C 180.67854 106.08468 184.32 97.293419 184.32 88.128 
C 184.32 78.962581 180.67854 70.17132 174.19761 63.69039 
C 167.71668 57.20946 158.925419 53.568 149.76 53.568 
C 140.594581 53.568 131.80332 57.20946 125.32239 63.69039 
C 118.84146 70.17132 115.2 78.962581 115.2 88.128 
C 115.2 97.293419 118.84146 106.08468 125.32239 112.56561 
C 131.80332 119.04654 140.594581 122.688 149.76 122.688 
z
" clip-path="url(#p5efdb67f7c)" style="fill: #ff0000; stroke: #ff0000; stroke-linejoin: miter"/>
   </g>
   <g id="PathCollection_3">
    <g clip-path="url(#p5efdb67f7c)">
     <use xlink:href="#m4bff4e75b0" x="149.76" y="88.128" style="stroke: #000000"/>
    </g>
   </g>
   <g id="patch_6">
    <path d="M 236.16 295.488 
C 245.325419 295.488 254.11668 291.84654 260.59761 285.36561 
C 267.07854 278.88468 270.72 270.093419 270.72 260.928 
C 270.72 251.762581 267.07854 242.97132 260.59761 236.49039 
C 254.11668 230.00946 245.325419 226.368 236.16 226.368 
C 226.994581 226.368 218.20332 230.00946 211.72239 236.49039 
C 205.24146 242.97132 201.6 251.762581 201.6 260.928 
C 201.6 270.093419 205.24146 278.88468 211.72239 285.36561 
C 218.20332 291.84654 226.994581 295.488 236.16 295.488 
z
" clip-path="url(#p5efdb67f7c)" style="fill: #ff0000; stroke: #ff0000; stroke-linejoin: miter"/>
   </g>
   <g id="PathCollection_4">
    <g clip-path="url(#p5efdb67f7c)">
     <use xlink:href="#m4bff4e75b0" x="236.16" y="260.928" style="stroke: #000000"/>
    </g>
   </g>
   <g id="patch_7">
    <path d="M 236.16 209.088 
C 245.325419 209.088 254.11668 205.44654 260.59761 198.96561 
C 267.07854 192.48468 270.72 183.693419 270.72 174.528 
C 270.72 165.362581 267.07854 156.57132 260.59761 150.09039 
C 254.11668 143.60946 245.325419 139.968 236.16 139.968 
C 226.994581 139.968 218.20332 143.60946 211.72239 150.09039 
C 205.24146 156.57132 201.6 165.362581 201.6 174.528 
C 201.6 183.693419 205.24146 192.48468 211.72239 198.96561 
C 218.20332 205.44654 226.994581 209.088 236.16 209.088 
z
" clip-path="url(#p5efdb67f7c)" style="fill: #ff0000; stroke: #ff0000; stroke-linejoin: miter"/>
   </g>
   <g id="PathCollection_5">
    <g clip-path="url(#p5efdb67f7c)">
     <use xlink:href="#m4bff4e75b0" x="236.16" y="174.528" style="stroke: #000000"/>
    </g>
   </g>
   <g id="patch_8">
    <path d="M 236.16 122.688 
C 245.325419 122.688 254.11668 119.04654 260.59761 112.56561 
C 267.07854 106.08468 270.72 97.293419 270.72 88.128 
C 270.72 78.962581 267.07854 70.17132 260.59761 63.69039 
C 254.11668 57.20946 245.325419 53.568 236.16 53.568 
C 226.994581 53.568 218.20332 57.20946 211.72239 63.69039 
C 205.24146 70.17132 201.6 78.962581 201.6 88.128 
C 201.6 97.293419 205.24146 106.08468 211.72239 112.56561 
C 218.20332 119.04654 226.994581 122.688 236.16 122.688 
z
" clip-path="url(#p5efdb67f7c)" style="fill: #ff0000; stroke: #ff0000; stroke-linejoin: miter"/>
   </g>
   <g id="PathCollection_6">
    <g clip-path="url(#p5efdb67f7c)">
     <use xlink:href="#m4bff4e75b0" x="236.16" y="88.128" style="stroke: #000000"/>
    </g>
   </g>
   <g id="patch_9">
    <path d="M 322.56 295.488 
C 331.725419 295.488 340.51668 291.84654 346.99761 285.36561 
C 353.47854 278.88468 357.12 270.093419 357.12 260.928 
C 357.12 251.762581 353.47854 242.97132 346.99761 236.49039 
C 340.51668 230.00946 331.725419 226.368 322.56 226.368 
C 313.394581 226.368 304.60332 230.00946 298.12239 236.49039 
C 291.64146 242.97132 288 251.762581 288 260.928 
C 288 270.093419 291.64146 278.88468 298.12239 285.36561 
C 304.60332 291.84654 313.394581 295.488 322.56 295.488 
z
" clip-path="url(#p5efdb67f7c)" style="fill: #ff0000; stroke: #ff0000; stroke-linejoin: miter"/>
   </g>
   <g id="PathCollection_7">
    <g clip-path="url(#p5efdb67f7c)">
     <use xlink:href="#m4bff4e75b0" x="322.56" y="260.928" style="stroke: #000000"/>
    </g>
   </g>
   <g id="patch_10">
    <path d="M 322.56 209.088 
C 331.725419 209.088 340.51668 205.44654 346.99761 198.96561 
C 353.47854 192.48468 357.12 183.693419 357.12 174.528 
C 357.12 165.362581 353.47854 156.57132 346.99761 150.09039 
C 340.51668 143.60946 331.725419 139.968 322.56 139.968 
C 313.394581 139.968 304.60332 143.60946 298.12239 150.09039 
C 291.64146 156.57132 288 165.362581 288 174.528 
C 288 183.693419 291.64146 192.48468 298.12239 198.96561 
C 304.60332 205.44654 313.394581 209.088 322.56 209.088 
z
" clip-path="url(#p5efdb67f7c)" style="fill: #ff0000; stroke: #ff0000; stroke-linejoin: miter"/>
   </g>
   <g id="PathCollection_8">
    <g clip-path="url(#p5efdb67f7c)">
     <use xlink:href="#m4bff4e75b0" x="322.56" y="174.528" style="stroke: #000000"/>
    </g>
   </g>
   <g id="patch_11">
    <path d="M 322.56 122.688 
C 331.725419 122.688 340.51668 119.04654 346.99761 112.56561 
C 353.47854 106.08468 357.12 97.293419 357.12 88.128 
C 357.12 78.962581 353.47854 70.17132 346.99761 63.69039 
C 340.51668 57.20946 331.725419 53.568 322.56 53.568 
C 313.394581 53.568 304.60332 57.20946 298.12239 63.69039 
C 291.64146 70.17132 288 78.962581 288 88.128 
C 288 97.293419 291.64146 106.08468 298.12239 112.56561 
C 304.60332 119.04654 313.394581 122.688 322.56 122.688 
z
" clip-path="url(#p5efdb67f7c)" style="fill: #ff0000; stroke: #ff0000; stroke-linejoin: miter"/>
   </g>
   <g id="PathCollection_9">
    <g clip-path="url(#p5efdb67f7c)">
     <use xlink:href="#m4bff4e75b0" x="322.56" y="88.128" style="stroke: #000000"/>
    </g>
   </g>
   <g id="patch_12">
    <path d="M 192.96 235.008 
C 197.54271 235.008 201.93834 233.18727 205.178805 229.946805 
C 208.41927 226.70634 210.24 222.31071 210.24 217.728 
C 210.24 213.14529 208.41927 208.74966 205.178805 205.509195 
C 201.93834 202.26873 197.54271 200.448 192.96 200.448 
C 188.37729 200.448 183.98166 202.26873 180.741195 205.509195 
C 177.50073 208.74966 175.68 213.14529 175.68 217.728 
C 175.68 222.31071 177.50073 226.70634 180.741195 229.946805 
C 183.98166 233.18727 188.37729 235.008 192.96 235.008 
z
" clip-path="url(#p5efdb67f7c)" style="fill: #1f77b4"/>
   </g>
   <g id="PathCollection_10">
    <g clip-path="url(#p5efdb67f7c)">
     <use xlink:href="#m4bff4e75b0" x="192.96" y="217.728" style="stroke: #000000"/>
    </g>
   </g>
   <g id="patch_13">
    <path d="M 192.96 148.608 
C 197.54271 148.608 201.93834 146.78727 205.178805 143.546805 
C 208.41927 140.30634 210.24 135.91071 210.24 131.328 
C 210.24 126.74529 208.41927 122.34966 205.178805 119.109195 
C 201.93834 115.86873 197.54271 114.048 192.96 114.048 
C 188.37729 114.048 183.98166 115.86873 180.741195 119.109195 
C 177.50073 122.34966 175.68 126.74529 175.68 131.328 
C 175.68 135.91071 177.50073 140.30634 180.741195 143.546805 
C 183.98166 146.78727 188.37729 148.608 192.96 148.608 
z
" clip-path="url(#p5efdb67f7c)" style="fill: #1f77b4"/>
   </g>
   <g id="PathCollection_11">
    <g clip-path="url(#p5efdb67f7c)">
     <use xlink:href="#m4bff4e75b0" x="192.96" y="131.328" style="stroke: #000000"/>
    </g>
   </g>
   <g id="patch_14">
    <path d="M 279.36 226.368 
C 283.94271 226.368 288.33834 224.54727 291.578805 221.306805 
C 294.81927 218.06634 296.64 213.67071 296.64 209.088 
C 296.64 204.50529 294.81927 200.10966 291.578805 196.869195 
C 288.33834 193.62873 283.94271 191.808 279.36 191.808 
C 274.77729 191.808 270.38166 193.62873 267.141195 196.869195 
C 263.90073 200.10966 262.08 204.50529 262.08 209.088 
C 262.08 213.67071 263.90073 218.06634 267.141195 221.306805 
C 270.38166 224.54727 274.77729 226.368 279.36 226.368 
z
" clip-path="url(#p5efdb67f7c)" style="fill: #1f77b4"/>
   </g>
   <g id="PathCollection_12">
    <g clip-path="url(#p5efdb67f7c)">
     <use xlink:href="#m4bff4e75b0" x="279.36" y="209.088" style="stroke: #000000"/>
    </g>
   </g>
   <g id="patch_15">
    <path d="M 279.36 139.968 
C 283.94271 139.968 288.33834 138.14727 291.578805 134.906805 
C 294.81927 131.66634 296.64 127.27071 296.64 122.688 
C 296.64 118.10529 294.81927 113.70966 291.578805 110.469195 
C 288.33834 107.22873 283.94271 105.408 279.36 105.408 
C 274.77729 105.408 270.38166 107.22873 267.141195 110.469195 
C 263.90073 113.70966 262.08 118.10529 262.08 122.688 
C 262.08 127.27071 263.90073 131.66634 267.141195 134.906805 
C 270.38166 138.14727 274.77729 139.968 279.36 139.968 
z
" clip-path="url(#p5efdb67f7c)" style="fill: #1f77b4"/>
   </g>
   <g id="PathCollection_13">
    <g clip-path="url(#p5efdb67f7c)">
     <use xlink:href="#m4bff4e75b0" x="279.36" y="122.688" style="stroke: #000000"/>
    </g>
   </g>
   <g id="matplotlib.axis_1">
    <g id="xtick_1">
     <g id="line2d_1">
      <defs>
       <path id="m4885eba5bf" d="M 0 0 
L 0 3.5 
" style="stroke: #000000; stroke-width: 0.8"/>
      </defs>
      <g>
       <use xlink:href="#m4885eba5bf" x="115.2" y="307.584" style="stroke: #000000; stroke-width: 0.8"/>
      </g>
     </g>
     <g id="text_1">
      <!-- −2 -->
      <g transform="translate(107.828906 322.182437) scale(0.1 -0.1)">
       <defs>
        <path id="DejaVuSans-2212" d="M 678 2272 
L 4684 2272 
L 4684 1741 
L 678 1741 
L 678 2272 
z
" transform="scale(0.015625)"/>
        <path id="DejaVuSans-32" d="M 1228 531 
L 3431 531 
L 3431 0 
L 469 0 
L 469 531 
Q 828 903 1448 1529 
Q 2069 2156 2228 2338 
Q 2531 2678 2651 2914 
Q 2772 3150 2772 3378 
Q 2772 3750 2511 3984 
Q 2250 4219 1831 4219 
Q 1534 4219 1204 4116 
Q 875 4013 500 3803 
L 500 4441 
Q 881 4594 1212 4672 
Q 1544 4750 1819 4750 
Q 2544 4750 2975 4387 
Q 3406 4025 3406 3419 
Q 3406 3131 3298 2873 
Q 3191 2616 2906 2266 
Q 2828 2175 2409 1742 
Q 1991 1309 1228 531 
z
" transform="scale(0.015625)"/>
       </defs>
       <use xlink:href="#DejaVuSans-2212"/>
       <use xlink:href="#DejaVuSans-32" x="83.789062"/>
      </g>
     </g>
    </g>
    <g id="xtick_2">
     <g id="line2d_2">
      <g>
       <use xlink:href="#m4885eba5bf" x="149.76" y="307.584" style="stroke: #000000; stroke-width: 0.8"/>
      </g>
     </g>
     <g id="text_2">
      <!-- 0 -->
      <g transform="translate(146.57875 322.182437) scale(0.1 -0.1)">
       <defs>
        <path id="DejaVuSans-30" d="M 2034 4250 
Q 1547 4250 1301 3770 
Q 1056 3291 1056 2328 
Q 1056 1369 1301 889 
Q 1547 409 2034 409 
Q 2525 409 2770 889 
Q 3016 1369 3016 2328 
Q 3016 3291 2770 3770 
Q 2525 4250 2034 4250 
z
M 2034 4750 
Q 2819 4750 3233 4129 
Q 3647 3509 3647 2328 
Q 3647 1150 3233 529 
Q 2819 -91 2034 -91 
Q 1250 -91 836 529 
Q 422 1150 422 2328 
Q 422 3509 836 4129 
Q 1250 4750 2034 4750 
z
" transform="scale(0.015625)"/>
       </defs>
       <use xlink:href="#DejaVuSans-30"/>
      </g>
     </g>
    </g>
    <g id="xtick_3">
     <g id="line2d_3">
      <g>
       <use xlink:href="#m4885eba5bf" x="184.32" y="307.584" style="stroke: #000000; stroke-width: 0.8"/>
      </g>
     </g>
     <g id="text_3">
      <!-- 2 -->
      <g transform="translate(181.13875 322.182437) scale(0.1 -0.1)">
       <use xlink:href="#DejaVuSans-32"/>
      </g>
     </g>
    </g>
    <g id="xtick_4">
     <g id="line2d_4">
      <g>
       <use xlink:href="#m4885eba5bf" x="218.88" y="307.584" style="stroke: #000000; stroke-width: 0.8"/>
      </g>
     </g>
     <g id="text_4">
      <!-- 4 -->
      <g transform="translate(215.69875 322.182437) scale(0.1 -0.1)">
       <defs>
        <path id="DejaVuSans-34" d="M 2419 4116 
L 825 1625 
L 2419 1625 
L 2419 4116 
z
M 2253 4666 
L 3047 4666 
L 3047 1625 
L 3713 1625 
L 3713 1100 
L 3047 1100 
L 3047 0 
L 2419 0 
L 2419 1100 
L 313 1100 
L 313 1709 
L 2253 4666 
z
" transform="scale(0.015625)"/>
       </defs>
       <use xlink:href="#DejaVuSans-34"/>
      </g>
     </g>
    </g>
    <g id="xtick_5">
     <g id="line2d_5">
      <g>
       <use xlink:href="#m4885eba5bf" x="253.44" y="307.584" style="stroke: #000000; stroke-width: 0.8"/>
      </g>
     </g>
     <g id="text_5">
      <!-- 6 -->
      <g transform="translate(250.25875 322.182437) scale(0.1 -0.1)">
       <defs>
        <path id="DejaVuSans-36" d="M 2113 2584 
Q 1688 2584 1439 2293 
Q 1191 2003 1191 1497 
Q 1191 994 1439 701 
Q 1688 409 2113 409 
Q 2538 409 2786 701 
Q 3034 994 3034 1497 
Q 3034 2003 2786 2293 
Q 2538 2584 2113 2584 
z
M 3366 4563 
L 3366 3988 
Q 3128 4100 2886 4159 
Q 2644 4219 2406 4219 
Q 1781 4219 1451 3797 
Q 1122 3375 1075 2522 
Q 1259 2794 1537 2939 
Q 1816 3084 2150 3084 
Q 2853 3084 3261 2657 
Q 3669 2231 3669 1497 
Q 3669 778 3244 343 
Q 2819 -91 2113 -91 
Q 1303 -91 875 529 
Q 447 1150 447 2328 
Q 447 3434 972 4092 
Q 1497 4750 2381 4750 
Q 2619 4750 2861 4703 
Q 3103 4656 3366 4563 
z
" transform="scale(0.015625)"/>
       </defs>
       <use xlink:href="#DejaVuSans-36"/>
      </g>
     </g>
    </g>
    <g id="xtick_6">
     <g id="line2d_6">
      <g>
       <use xlink:href="#m4885eba5bf" x="288" y="307.584" style="stroke: #000000; stroke-width: 0.8"/>
      </g>
     </g>
     <g id="text_6">
      <!-- 8 -->
      <g transform="translate(284.81875 322.182437) scale(0.1 -0.1)">
       <defs>
        <path id="DejaVuSans-38" d="M 2034 2216 
Q 1584 2216 1326 1975 
Q 1069 1734 1069 1313 
Q 1069 891 1326 650 
Q 1584 409 2034 409 
Q 2484 409 2743 651 
Q 3003 894 3003 1313 
Q 3003 1734 2745 1975 
Q 2488 2216 2034 2216 
z
M 1403 2484 
Q 997 2584 770 2862 
Q 544 3141 544 3541 
Q 544 4100 942 4425 
Q 1341 4750 2034 4750 
Q 2731 4750 3128 4425 
Q 3525 4100 3525 3541 
Q 3525 3141 3298 2862 
Q 3072 2584 2669 2484 
Q 3125 2378 3379 2068 
Q 3634 1759 3634 1313 
Q 3634 634 3220 271 
Q 2806 -91 2034 -91 
Q 1263 -91 848 271 
Q 434 634 434 1313 
Q 434 1759 690 2068 
Q 947 2378 1403 2484 
z
M 1172 3481 
Q 1172 3119 1398 2916 
Q 1625 2713 2034 2713 
Q 2441 2713 2670 2916 
Q 2900 3119 2900 3481 
Q 2900 3844 2670 4047 
Q 2441 4250 2034 4250 
Q 1625 4250 1398 4047 
Q 1172 3844 1172 3481 
z
" transform="scale(0.015625)"/>
       </defs>
       <use xlink:href="#DejaVuSans-38"/>
      </g>
     </g>
    </g>
    <g id="xtick_7">
     <g id="line2d_7">
      <g>
       <use xlink:href="#m4885eba5bf" x="322.56" y="307.584" style="stroke: #000000; stroke-width: 0.8"/>
      </g>
     </g>
     <g id="text_7">
      <!-- 10 -->
      <g transform="translate(316.1975 322.182437) scale(0.1 -0.1)">
       <defs>
        <path id="DejaVuSans-31" d="M 794 531 
L 1825 531 
L 1825 4091 
L 703 3866 
L 703 4441 
L 1819 4666 
L 2450 4666 
L 2450 531 
L 3481 531 
L 3481 0 
L 794 0 
L 794 531 
z
" transform="scale(0.015625)"/>
       </defs>
       <use xlink:href="#DejaVuSans-31"/>
       <use xlink:href="#DejaVuSans-30" x="63.623047"/>
      </g>
     </g>
    </g>
    <g id="xtick_8">
     <g id="line2d_8">
      <g>
       <use xlink:href="#m4885eba5bf" x="357.12" y="307.584" style="stroke: #000000; stroke-width: 0.8"/>
      </g>
     </g>
     <g id="text_8">
      <!-- 12 -->
      <g transform="translate(350.7575 322.182437) scale(0.1 -0.1)">
       <use xlink:href="#DejaVuSans-31"/>
       <use xlink:href="#DejaVuSans-32" x="63.623047"/>
      </g>
     </g>
    </g>
   </g>
   <g id="matplotlib.axis_2">
    <g id="ytick_1">
     <g id="line2d_9">
      <defs>
       <path id="m8cbb7a4060" d="M 0 0 
L -3.5 0 
" style="stroke: #000000; stroke-width: 0.8"/>
      </defs>
      <g>
       <use xlink:href="#m8cbb7a4060" x="103.104" y="295.488" style="stroke: #000000; stroke-width: 0.8"/>
      </g>
     </g>
     <g id="text_9">
      <!-- −2 -->
      <g transform="translate(81.361813 299.287219) scale(0.1 -0.1)">
       <use xlink:href="#DejaVuSans-2212"/>
       <use xlink:href="#DejaVuSans-32" x="83.789062"/>
      </g>
     </g>
    </g>
    <g id="ytick_2">
     <g id="line2d_10">
      <g>
       <use xlink:href="#m8cbb7a4060" x="103.104" y="260.928" style="stroke: #000000; stroke-width: 0.8"/>
      </g>
     </g>
     <g id="text_10">
      <!-- 0 -->
      <g transform="translate(89.7415 264.727219) scale(0.1 -0.1)">
       <use xlink:href="#DejaVuSans-30"/>
      </g>
     </g>
    </g>
    <g id="ytick_3">
     <g id="line2d_11">
      <g>
       <use xlink:href="#m8cbb7a4060" x="103.104" y="226.368" style="stroke: #000000; stroke-width: 0.8"/>
      </g>
     </g>
     <g id="text_11">
      <!-- 2 -->
      <g transform="translate(89.7415 230.167219) scale(0.1 -0.1)">
       <use xlink:href="#DejaVuSans-32"/>
      </g>
     </g>
    </g>
    <g id="ytick_4">
     <g id="line2d_12">
      <g>
       <use xlink:href="#m8cbb7a4060" x="103.104" y="191.808" style="stroke: #000000; stroke-width: 0.8"/>
      </g>
     </g>
     <g id="text_12">
      <!-- 4 -->
      <g transform="translate(89.7415 195.607219) scale(0.1 -0.1)">
       <use xlink:href="#DejaVuSans-34"/>
      </g>
     </g>
    </g>
    <g id="ytick_5">
     <g id="line2d_13">
      <g>
       <use xlink:href="#m8cbb7a4060" x="103.104" y="157.248" style="stroke: #000000; stroke-width: 0.8"/>
      </g>
     </g>
     <g id="text_13">
      <!-- 6 -->
      <g transform="translate(89.7415 161.047219) scale(0.1 -0.1)">
       <use xlink:href="#DejaVuSans-36"/>
      </g>
     </g>
    </g>
    <g id="ytick_6">
     <g id="line2d_14">
      <g>
       <use xlink:href="#m8cbb7a4060" x="103.104" y="122.688" style="stroke: #000000; stroke-width: 0.8"/>
      </g>
     </g>
     <g id="text_14">
      <!-- 8 -->
      <g transform="translate(89.7415 126.487219) scale(0.1 -0.1)">
       <use xlink:href="#DejaVuSans-38"/>
      </g>
     </g>
    </g>
    <g id="ytick_7">
     <g id="line2d_15">
      <g>
       <use xlink:href="#m8cbb7a4060" x="103.104" y="88.128" style="stroke: #000000; stroke-width: 0.8"/>
      </g>
     </g>
     <g id="text_15">
      <!-- 10 -->
      <g transform="translate(83.379 91.927219) scale(0.1 -0.1)">
       <use xlink:href="#DejaVuSans-31"/>
       <use xlink:href="#DejaVuSans-30" x="63.623047"/>
      </g>
     </g>
    </g>
    <g id="ytick_8">
     <g id="line2d_16">
      <g>
       <use xlink:href="#m8cbb7a4060" x="103.104" y="53.568" style="stroke: #000000; stroke-width: 0.8"/>
      </g>
     </g>
     <g id="text_16">
      <!-- 12 -->
      <g transform="translate(83.379 57.367219) scale(0.1 -0.1)">
       <use xlink:href="#DejaVuSans-31"/>
       <use xlink:href="#DejaVuSans-32" x="63.623047"/>
      </g>
     </g>
    </g>
   </g>
   <g id="line2d_17">
    <path d="M 149.76 260.928 
" clip-path="url(#p5efdb67f7c)" style="fill: none; stroke: #1f77b4; stroke-width: 1.5; stroke-linecap: square"/>
   </g>
   <g id="patch_16">
    <path d="M 103.104 307.584 
L 103.104 41.472 
" style="fill: none; stroke: #000000; stroke-width: 0.8; stroke-linejoin: miter; stroke-linecap: square"/>
   </g>
   <g id="patch_17">
    <path d="M 369.216 307.584 
L 369.216 41.472 
" style="fill: none; stroke: #000000; stroke-width: 0.8; stroke-linejoin: miter; stroke-linecap: square"/>
   </g>
   <g id="patch_18">
    <path d="M 103.104 307.584 
L 369.216 307.584 
" style="fill: none; stroke: #000000; stroke-width: 0.8; stroke-linejoin: miter; stroke-linecap: square"/>
   </g>
   <g id="patch_19">
    <path d="M 103.104 41.472 
L 369.216 41.472 
" style="fill: none; stroke: #000000; stroke-width: 0.8; stroke-linejoin: miter; stroke-linecap: square"/>
   </g>
  </g>
 </g>
 <defs>
  <clipPath id="p5efdb67f7c">
   <rect x="103.104" y="41.472" width="266.112" height="266.112"/>
  </clipPath>
 </defs>
</svg>
