<?xml version="1.0" encoding="utf-8" standalone="no"?>
<!DOCTYPE svg PUBLIC "-//W3C//DTD SVG 1.1//EN"
  "http://www.w3.org/Graphics/SVG/1.1/DTD/svg11.dtd">
<svg xmlns:xlink="http://www.w3.org/1999/xlink" width="460.8pt" height="345.6pt" viewBox="0 0 460.8 345.6" xmlns="http://www.w3.org/2000/svg" version="1.1">
 <metadata>
  <rdf:RDF xmlns:dc="http://purl.org/dc/elements/1.1/" xmlns:cc="http://creativecommons.org/ns#" xmlns:rdf="http://www.w3.org/1999/02/22-rdf-syntax-ns#">
   <cc:Work>
    <dc:type rdf:resource="http://purl.org/dc/dcmitype/StillImage"/>
    <dc:date>2024-02-27T12:55:16.569883</dc:date>
    <dc:format>image/svg+xml</dc:format>
    <dc:creator>
     <cc:Agent>
      <dc:title>Matplotlib v3.8.2, https://matplotlib.org/</dc:title>
     </cc:Agent>
    </dc:creator>
   </cc:Work>
  </rdf:RDF>
 </metadata>
 <defs>
  <style type="text/css">*{stroke-linejoin: round; stroke-linecap: butt}</style>
 </defs>
 <g id="figure_1">
  <g id="patch_1">
   <path d="M 0 345.6 
L 460.8 345.6 
L 460.8 0 
L 0 0 
z
" style="fill: #ffffff"/>
  </g>
  <g id="axes_1">
   <g id="patch_2">
    <path d="M 103.104 307.584 
L 369.216 307.584 
L 369.216 41.472 
L 103.104 41.472 
z
" style="fill: #ffffff"/>
   </g>
   <g id="patch_3">
    <path d="M 124.16 295.488 
C 126.53622 295.488 128.815436 294.543918 130.495677 292.863677 
C 132.175918 291.183436 133.12 288.90422 133.12 286.528 
C 133.12 284.15178 132.175918 281.872564 130.495677 280.192323 
C 128.815436 278.512082 126.53622 277.568 124.16 277.568 
C 121.78378 277.568 119.504564 278.512082 117.824323 280.192323 
C 116.144082 281.872564 115.2 284.15178 115.2 286.528 
C 115.2 288.90422 116.144082 291.183436 117.824323 292.863677 
C 119.504564 294.543918 121.78378 295.488 124.16 295.488 
z
" clip-path="url(#p8a2ab08387)" style="fill: #1f77b4"/>
   </g>
   <g id="PathCollection_1">
    <defs>
     <path id="m557298990d" d="M 0 1.118034 
C 0.296506 1.118034 0.580908 1.000231 0.790569 0.790569 
C 1.000231 0.580908 1.118034 0.296506 1.118034 0 
C 1.118034 -0.296506 1.000231 -0.580908 0.790569 -0.790569 
C 0.580908 -1.000231 0.296506 -1.118034 0 -1.118034 
C -0.296506 -1.118034 -0.580908 -1.000231 -0.790569 -0.790569 
C -1.000231 -0.580908 -1.118034 -0.296506 -1.118034 0 
C -1.118034 0.296506 -1.000231 0.580908 -0.790569 0.790569 
C -0.580908 1.000231 -0.296506 1.118034 0 1.118034 
z
" style="stroke: #000000"/>
    </defs>
    <g clip-path="url(#p8a2ab08387)">
     <use xlink:href="#m557298990d" x="124.16" y="286.528" style="stroke: #000000"/>
    </g>
   </g>
   <g id="patch_4">
    <path d="M 124.16 250.688 
C 126.53622 250.688 128.815436 249.743918 130.495677 248.063677 
C 132.175918 246.383436 133.12 244.10422 133.12 241.728 
C 133.12 239.35178 132.175918 237.072564 130.495677 235.392323 
C 128.815436 233.712082 126.53622 232.768 124.16 232.768 
C 121.78378 232.768 119.504564 233.712082 117.824323 235.392323 
C 116.144082 237.072564 115.2 239.35178 115.2 241.728 
C 115.2 244.10422 116.144082 246.383436 117.824323 248.063677 
C 119.504564 249.743918 121.78378 250.688 124.16 250.688 
z
" clip-path="url(#p8a2ab08387)" style="fill: #1f77b4"/>
   </g>
   <g id="PathCollection_2">
    <g clip-path="url(#p8a2ab08387)">
     <use xlink:href="#m557298990d" x="124.16" y="241.728" style="stroke: #000000"/>
    </g>
   </g>
   <g id="patch_5">
    <path d="M 124.16 205.888 
C 126.53622 205.888 128.815436 204.943918 130.495677 203.263677 
C 132.175918 201.583436 133.12 199.30422 133.12 196.928 
C 133.12 194.55178 132.175918 192.272564 130.495677 190.592323 
C 128.815436 188.912082 126.53622 187.968 124.16 187.968 
C 121.78378 187.968 119.504564 188.912082 117.824323 190.592323 
C 116.144082 192.272564 115.2 194.55178 115.2 196.928 
C 115.2 199.30422 116.144082 201.583436 117.824323 203.263677 
C 119.504564 204.943918 121.78378 205.888 124.16 205.888 
z
" clip-path="url(#p8a2ab08387)" style="fill: #1f77b4"/>
   </g>
   <g id="PathCollection_3">
    <g clip-path="url(#p8a2ab08387)">
     <use xlink:href="#m557298990d" x="124.16" y="196.928" style="stroke: #000000"/>
    </g>
   </g>
   <g id="patch_6">
    <path d="M 124.16 161.088 
C 126.53622 161.088 128.815436 160.143918 130.495677 158.463677 
C 132.175918 156.783436 133.12 154.50422 133.12 152.128 
C 133.12 149.75178 132.175918 147.472564 130.495677 145.792323 
C 128.815436 144.112082 126.53622 143.168 124.16 143.168 
C 121.78378 143.168 119.504564 144.112082 117.824323 145.792323 
C 116.144082 147.472564 115.2 149.75178 115.2 152.128 
C 115.2 154.50422 116.144082 156.783436 117.824323 158.463677 
C 119.504564 160.143918 121.78378 161.088 124.16 161.088 
z
" clip-path="url(#p8a2ab08387)" style="fill: #1f77b4"/>
   </g>
   <g id="PathCollection_4">
    <g clip-path="url(#p8a2ab08387)">
     <use xlink:href="#m557298990d" x="124.16" y="152.128" style="stroke: #000000"/>
    </g>
   </g>
   <g id="patch_7">
    <path d="M 124.16 116.288 
C 126.53622 116.288 128.815436 115.343918 130.495677 113.663677 
C 132.175918 111.983436 133.12 109.70422 133.12 107.328 
C 133.12 104.95178 132.175918 102.672564 130.495677 100.992323 
C 128.815436 99.312082 126.53622 98.368 124.16 98.368 
C 121.78378 98.368 119.504564 99.312082 117.824323 100.992323 
C 116.144082 102.672564 115.2 104.95178 115.2 107.328 
C 115.2 109.70422 116.144082 111.983436 117.824323 113.663677 
C 119.504564 115.343918 121.78378 116.288 124.16 116.288 
z
" clip-path="url(#p8a2ab08387)" style="fill: #1f77b4"/>
   </g>
   <g id="PathCollection_5">
    <g clip-path="url(#p8a2ab08387)">
     <use xlink:href="#m557298990d" x="124.16" y="107.328" style="stroke: #000000"/>
    </g>
   </g>
   <g id="patch_8">
    <path d="M 124.16 71.488 
C 126.53622 71.488 128.815436 70.543918 130.495677 68.863677 
C 132.175918 67.183436 133.12 64.90422 133.12 62.528 
C 133.12 60.15178 132.175918 57.872564 130.495677 56.192323 
C 128.815436 54.512082 126.53622 53.568 124.16 53.568 
C 121.78378 53.568 119.504564 54.512082 117.824323 56.192323 
C 116.144082 57.872564 115.2 60.15178 115.2 62.528 
C 115.2 64.90422 116.144082 67.183436 117.824323 68.863677 
C 119.504564 70.543918 121.78378 71.488 124.16 71.488 
z
" clip-path="url(#p8a2ab08387)" style="fill: #1f77b4"/>
   </g>
   <g id="PathCollection_6">
    <g clip-path="url(#p8a2ab08387)">
     <use xlink:href="#m557298990d" x="124.16" y="62.528" style="stroke: #000000"/>
    </g>
   </g>
   <g id="patch_9">
    <path d="M 168.96 295.488 
C 171.33622 295.488 173.615436 294.543918 175.295677 292.863677 
C 176.975918 291.183436 177.92 288.90422 177.92 286.528 
C 177.92 284.15178 176.975918 281.872564 175.295677 280.192323 
C 173.615436 278.512082 171.33622 277.568 168.96 277.568 
C 166.58378 277.568 164.304564 278.512082 162.624323 280.192323 
C 160.944082 281.872564 160 284.15178 160 286.528 
C 160 288.90422 160.944082 291.183436 162.624323 292.863677 
C 164.304564 294.543918 166.58378 295.488 168.96 295.488 
z
" clip-path="url(#p8a2ab08387)" style="fill: #1f77b4"/>
   </g>
   <g id="PathCollection_7">
    <g clip-path="url(#p8a2ab08387)">
     <use xlink:href="#m557298990d" x="168.96" y="286.528" style="stroke: #000000"/>
    </g>
   </g>
   <g id="patch_10">
    <path d="M 168.96 250.688 
C 171.33622 250.688 173.615436 249.743918 175.295677 248.063677 
C 176.975918 246.383436 177.92 244.10422 177.92 241.728 
C 177.92 239.35178 176.975918 237.072564 175.295677 235.392323 
C 173.615436 233.712082 171.33622 232.768 168.96 232.768 
C 166.58378 232.768 164.304564 233.712082 162.624323 235.392323 
C 160.944082 237.072564 160 239.35178 160 241.728 
C 160 244.10422 160.944082 246.383436 162.624323 248.063677 
C 164.304564 249.743918 166.58378 250.688 168.96 250.688 
z
" clip-path="url(#p8a2ab08387)" style="fill: #1f77b4"/>
   </g>
   <g id="PathCollection_8">
    <g clip-path="url(#p8a2ab08387)">
     <use xlink:href="#m557298990d" x="168.96" y="241.728" style="stroke: #000000"/>
    </g>
   </g>
   <g id="patch_11">
    <path d="M 168.96 205.888 
C 171.33622 205.888 173.615436 204.943918 175.295677 203.263677 
C 176.975918 201.583436 177.92 199.30422 177.92 196.928 
C 177.92 194.55178 176.975918 192.272564 175.295677 190.592323 
C 173.615436 188.912082 171.33622 187.968 168.96 187.968 
C 166.58378 187.968 164.304564 188.912082 162.624323 190.592323 
C 160.944082 192.272564 160 194.55178 160 196.928 
C 160 199.30422 160.944082 201.583436 162.624323 203.263677 
C 164.304564 204.943918 166.58378 205.888 168.96 205.888 
z
" clip-path="url(#p8a2ab08387)" style="fill: #1f77b4"/>
   </g>
   <g id="PathCollection_9">
    <g clip-path="url(#p8a2ab08387)">
     <use xlink:href="#m557298990d" x="168.96" y="196.928" style="stroke: #000000"/>
    </g>
   </g>
   <g id="patch_12">
    <path d="M 168.96 161.088 
C 171.33622 161.088 173.615436 160.143918 175.295677 158.463677 
C 176.975918 156.783436 177.92 154.50422 177.92 152.128 
C 177.92 149.75178 176.975918 147.472564 175.295677 145.792323 
C 173.615436 144.112082 171.33622 143.168 168.96 143.168 
C 166.58378 143.168 164.304564 144.112082 162.624323 145.792323 
C 160.944082 147.472564 160 149.75178 160 152.128 
C 160 154.50422 160.944082 156.783436 162.624323 158.463677 
C 164.304564 160.143918 166.58378 161.088 168.96 161.088 
z
" clip-path="url(#p8a2ab08387)" style="fill: #1f77b4"/>
   </g>
   <g id="PathCollection_10">
    <g clip-path="url(#p8a2ab08387)">
     <use xlink:href="#m557298990d" x="168.96" y="152.128" style="stroke: #000000"/>
    </g>
   </g>
   <g id="patch_13">
    <path d="M 168.96 116.288 
C 171.33622 116.288 173.615436 115.343918 175.295677 113.663677 
C 176.975918 111.983436 177.92 109.70422 177.92 107.328 
C 177.92 104.95178 176.975918 102.672564 175.295677 100.992323 
C 173.615436 99.312082 171.33622 98.368 168.96 98.368 
C 166.58378 98.368 164.304564 99.312082 162.624323 100.992323 
C 160.944082 102.672564 160 104.95178 160 107.328 
C 160 109.70422 160.944082 111.983436 162.624323 113.663677 
C 164.304564 115.343918 166.58378 116.288 168.96 116.288 
z
" clip-path="url(#p8a2ab08387)" style="fill: #1f77b4"/>
   </g>
   <g id="PathCollection_11">
    <g clip-path="url(#p8a2ab08387)">
     <use xlink:href="#m557298990d" x="168.96" y="107.328" style="stroke: #000000"/>
    </g>
   </g>
   <g id="patch_14">
    <path d="M 168.96 71.488 
C 171.33622 71.488 173.615436 70.543918 175.295677 68.863677 
C 176.975918 67.183436 177.92 64.90422 177.92 62.528 
C 177.92 60.15178 176.975918 57.872564 175.295677 56.192323 
C 173.615436 54.512082 171.33622 53.568 168.96 53.568 
C 166.58378 53.568 164.304564 54.512082 162.624323 56.192323 
C 160.944082 57.872564 160 60.15178 160 62.528 
C 160 64.90422 160.944082 67.183436 162.624323 68.863677 
C 164.304564 70.543918 166.58378 71.488 168.96 71.488 
z
" clip-path="url(#p8a2ab08387)" style="fill: #1f77b4"/>
   </g>
   <g id="PathCollection_12">
    <g clip-path="url(#p8a2ab08387)">
     <use xlink:href="#m557298990d" x="168.96" y="62.528" style="stroke: #000000"/>
    </g>
   </g>
   <g id="patch_15">
    <path d="M 213.76 295.488 
C 216.13622 295.488 218.415436 294.543918 220.095677 292.863677 
C 221.775918 291.183436 222.72 288.90422 222.72 286.528 
C 222.72 284.15178 221.775918 281.872564 220.095677 280.192323 
C 218.415436 278.512082 216.13622 277.568 213.76 277.568 
C 211.38378 277.568 209.104564 278.512082 207.424323 280.192323 
C 205.744082 281.872564 204.8 284.15178 204.8 286.528 
C 204.8 288.90422 205.744082 291.183436 207.424323 292.863677 
C 209.104564 294.543918 211.38378 295.488 213.76 295.488 
z
" clip-path="url(#p8a2ab08387)" style="fill: #1f77b4"/>
   </g>
   <g id="PathCollection_13">
    <g clip-path="url(#p8a2ab08387)">
     <use xlink:href="#m557298990d" x="213.76" y="286.528" style="stroke: #000000"/>
    </g>
   </g>
   <g id="patch_16">
    <path d="M 213.76 250.688 
C 216.13622 250.688 218.415436 249.743918 220.095677 248.063677 
C 221.775918 246.383436 222.72 244.10422 222.72 241.728 
C 222.72 239.35178 221.775918 237.072564 220.095677 235.392323 
C 218.415436 233.712082 216.13622 232.768 213.76 232.768 
C 211.38378 232.768 209.104564 233.712082 207.424323 235.392323 
C 205.744082 237.072564 204.8 239.35178 204.8 241.728 
C 204.8 244.10422 205.744082 246.383436 207.424323 248.063677 
C 209.104564 249.743918 211.38378 250.688 213.76 250.688 
z
" clip-path="url(#p8a2ab08387)" style="fill: #1f77b4"/>
   </g>
   <g id="PathCollection_14">
    <g clip-path="url(#p8a2ab08387)">
     <use xlink:href="#m557298990d" x="213.76" y="241.728" style="stroke: #000000"/>
    </g>
   </g>
   <g id="patch_17">
    <path d="M 213.76 205.888 
C 216.13622 205.888 218.415436 204.943918 220.095677 203.263677 
C 221.775918 201.583436 222.72 199.30422 222.72 196.928 
C 222.72 194.55178 221.775918 192.272564 220.095677 190.592323 
C 218.415436 188.912082 216.13622 187.968 213.76 187.968 
C 211.38378 187.968 209.104564 188.912082 207.424323 190.592323 
C 205.744082 192.272564 204.8 194.55178 204.8 196.928 
C 204.8 199.30422 205.744082 201.583436 207.424323 203.263677 
C 209.104564 204.943918 211.38378 205.888 213.76 205.888 
z
" clip-path="url(#p8a2ab08387)" style="fill: #1f77b4"/>
   </g>
   <g id="PathCollection_15">
    <g clip-path="url(#p8a2ab08387)">
     <use xlink:href="#m557298990d" x="213.76" y="196.928" style="stroke: #000000"/>
    </g>
   </g>
   <g id="patch_18">
    <path d="M 213.76 161.088 
C 216.13622 161.088 218.415436 160.143918 220.095677 158.463677 
C 221.775918 156.783436 222.72 154.50422 222.72 152.128 
C 222.72 149.75178 221.775918 147.472564 220.095677 145.792323 
C 218.415436 144.112082 216.13622 143.168 213.76 143.168 
C 211.38378 143.168 209.104564 144.112082 207.424323 145.792323 
C 205.744082 147.472564 204.8 149.75178 204.8 152.128 
C 204.8 154.50422 205.744082 156.783436 207.424323 158.463677 
C 209.104564 160.143918 211.38378 161.088 213.76 161.088 
z
" clip-path="url(#p8a2ab08387)" style="fill: #1f77b4"/>
   </g>
   <g id="PathCollection_16">
    <g clip-path="url(#p8a2ab08387)">
     <use xlink:href="#m557298990d" x="213.76" y="152.128" style="stroke: #000000"/>
    </g>
   </g>
   <g id="patch_19">
    <path d="M 213.76 116.288 
C 216.13622 116.288 218.415436 115.343918 220.095677 113.663677 
C 221.775918 111.983436 222.72 109.70422 222.72 107.328 
C 222.72 104.95178 221.775918 102.672564 220.095677 100.992323 
C 218.415436 99.312082 216.13622 98.368 213.76 98.368 
C 211.38378 98.368 209.104564 99.312082 207.424323 100.992323 
C 205.744082 102.672564 204.8 104.95178 204.8 107.328 
C 204.8 109.70422 205.744082 111.983436 207.424323 113.663677 
C 209.104564 115.343918 211.38378 116.288 213.76 116.288 
z
" clip-path="url(#p8a2ab08387)" style="fill: #1f77b4"/>
   </g>
   <g id="PathCollection_17">
    <g clip-path="url(#p8a2ab08387)">
     <use xlink:href="#m557298990d" x="213.76" y="107.328" style="stroke: #000000"/>
    </g>
   </g>
   <g id="patch_20">
    <path d="M 213.76 71.488 
C 216.13622 71.488 218.415436 70.543918 220.095677 68.863677 
C 221.775918 67.183436 222.72 64.90422 222.72 62.528 
C 222.72 60.15178 221.775918 57.872564 220.095677 56.192323 
C 218.415436 54.512082 216.13622 53.568 213.76 53.568 
C 211.38378 53.568 209.104564 54.512082 207.424323 56.192323 
C 205.744082 57.872564 204.8 60.15178 204.8 62.528 
C 204.8 64.90422 205.744082 67.183436 207.424323 68.863677 
C 209.104564 70.543918 211.38378 71.488 213.76 71.488 
z
" clip-path="url(#p8a2ab08387)" style="fill: #1f77b4"/>
   </g>
   <g id="PathCollection_18">
    <g clip-path="url(#p8a2ab08387)">
     <use xlink:href="#m557298990d" x="213.76" y="62.528" style="stroke: #000000"/>
    </g>
   </g>
   <g id="patch_21">
    <path d="M 258.56 295.488 
C 260.93622 295.488 263.215436 294.543918 264.895677 292.863677 
C 266.575918 291.183436 267.52 288.90422 267.52 286.528 
C 267.52 284.15178 266.575918 281.872564 264.895677 280.192323 
C 263.215436 278.512082 260.93622 277.568 258.56 277.568 
C 256.18378 277.568 253.904564 278.512082 252.224323 280.192323 
C 250.544082 281.872564 249.6 284.15178 249.6 286.528 
C 249.6 288.90422 250.544082 291.183436 252.224323 292.863677 
C 253.904564 294.543918 256.18378 295.488 258.56 295.488 
z
" clip-path="url(#p8a2ab08387)" style="fill: #1f77b4"/>
   </g>
   <g id="PathCollection_19">
    <g clip-path="url(#p8a2ab08387)">
     <use xlink:href="#m557298990d" x="258.56" y="286.528" style="stroke: #000000"/>
    </g>
   </g>
   <g id="patch_22">
    <path d="M 258.56 250.688 
C 260.93622 250.688 263.215436 249.743918 264.895677 248.063677 
C 266.575918 246.383436 267.52 244.10422 267.52 241.728 
C 267.52 239.35178 266.575918 237.072564 264.895677 235.392323 
C 263.215436 233.712082 260.93622 232.768 258.56 232.768 
C 256.18378 232.768 253.904564 233.712082 252.224323 235.392323 
C 250.544082 237.072564 249.6 239.35178 249.6 241.728 
C 249.6 244.10422 250.544082 246.383436 252.224323 248.063677 
C 253.904564 249.743918 256.18378 250.688 258.56 250.688 
z
" clip-path="url(#p8a2ab08387)" style="fill: #1f77b4"/>
   </g>
   <g id="PathCollection_20">
    <g clip-path="url(#p8a2ab08387)">
     <use xlink:href="#m557298990d" x="258.56" y="241.728" style="stroke: #000000"/>
    </g>
   </g>
   <g id="patch_23">
    <path d="M 258.56 205.888 
C 260.93622 205.888 263.215436 204.943918 264.895677 203.263677 
C 266.575918 201.583436 267.52 199.30422 267.52 196.928 
C 267.52 194.55178 266.575918 192.272564 264.895677 190.592323 
C 263.215436 188.912082 260.93622 187.968 258.56 187.968 
C 256.18378 187.968 253.904564 188.912082 252.224323 190.592323 
C 250.544082 192.272564 249.6 194.55178 249.6 196.928 
C 249.6 199.30422 250.544082 201.583436 252.224323 203.263677 
C 253.904564 204.943918 256.18378 205.888 258.56 205.888 
z
" clip-path="url(#p8a2ab08387)" style="fill: #1f77b4"/>
   </g>
   <g id="PathCollection_21">
    <g clip-path="url(#p8a2ab08387)">
     <use xlink:href="#m557298990d" x="258.56" y="196.928" style="stroke: #000000"/>
    </g>
   </g>
   <g id="patch_24">
    <path d="M 258.56 161.088 
C 260.93622 161.088 263.215436 160.143918 264.895677 158.463677 
C 266.575918 156.783436 267.52 154.50422 267.52 152.128 
C 267.52 149.75178 266.575918 147.472564 264.895677 145.792323 
C 263.215436 144.112082 260.93622 143.168 258.56 143.168 
C 256.18378 143.168 253.904564 144.112082 252.224323 145.792323 
C 250.544082 147.472564 249.6 149.75178 249.6 152.128 
C 249.6 154.50422 250.544082 156.783436 252.224323 158.463677 
C 253.904564 160.143918 256.18378 161.088 258.56 161.088 
z
" clip-path="url(#p8a2ab08387)" style="fill: #1f77b4"/>
   </g>
   <g id="PathCollection_22">
    <g clip-path="url(#p8a2ab08387)">
     <use xlink:href="#m557298990d" x="258.56" y="152.128" style="stroke: #000000"/>
    </g>
   </g>
   <g id="patch_25">
    <path d="M 258.56 116.288 
C 260.93622 116.288 263.215436 115.343918 264.895677 113.663677 
C 266.575918 111.983436 267.52 109.70422 267.52 107.328 
C 267.52 104.95178 266.575918 102.672564 264.895677 100.992323 
C 263.215436 99.312082 260.93622 98.368 258.56 98.368 
C 256.18378 98.368 253.904564 99.312082 252.224323 100.992323 
C 250.544082 102.672564 249.6 104.95178 249.6 107.328 
C 249.6 109.70422 250.544082 111.983436 252.224323 113.663677 
C 253.904564 115.343918 256.18378 116.288 258.56 116.288 
z
" clip-path="url(#p8a2ab08387)" style="fill: #1f77b4"/>
   </g>
   <g id="PathCollection_23">
    <g clip-path="url(#p8a2ab08387)">
     <use xlink:href="#m557298990d" x="258.56" y="107.328" style="stroke: #000000"/>
    </g>
   </g>
   <g id="patch_26">
    <path d="M 258.56 71.488 
C 260.93622 71.488 263.215436 70.543918 264.895677 68.863677 
C 266.575918 67.183436 267.52 64.90422 267.52 62.528 
C 267.52 60.15178 266.575918 57.872564 264.895677 56.192323 
C 263.215436 54.512082 260.93622 53.568 258.56 53.568 
C 256.18378 53.568 253.904564 54.512082 252.224323 56.192323 
C 250.544082 57.872564 249.6 60.15178 249.6 62.528 
C 249.6 64.90422 250.544082 67.183436 252.224323 68.863677 
C 253.904564 70.543918 256.18378 71.488 258.56 71.488 
z
" clip-path="url(#p8a2ab08387)" style="fill: #1f77b4"/>
   </g>
   <g id="PathCollection_24">
    <g clip-path="url(#p8a2ab08387)">
     <use xlink:href="#m557298990d" x="258.56" y="62.528" style="stroke: #000000"/>
    </g>
   </g>
   <g id="patch_27">
    <path d="M 303.36 295.488 
C 305.73622 295.488 308.015436 294.543918 309.695677 292.863677 
C 311.375918 291.183436 312.32 288.90422 312.32 286.528 
C 312.32 284.15178 311.375918 281.872564 309.695677 280.192323 
C 308.015436 278.512082 305.73622 277.568 303.36 277.568 
C 300.98378 277.568 298.704564 278.512082 297.024323 280.192323 
C 295.344082 281.872564 294.4 284.15178 294.4 286.528 
C 294.4 288.90422 295.344082 291.183436 297.024323 292.863677 
C 298.704564 294.543918 300.98378 295.488 303.36 295.488 
z
" clip-path="url(#p8a2ab08387)" style="fill: #1f77b4"/>
   </g>
   <g id="PathCollection_25">
    <g clip-path="url(#p8a2ab08387)">
     <use xlink:href="#m557298990d" x="303.36" y="286.528" style="stroke: #000000"/>
    </g>
   </g>
   <g id="patch_28">
    <path d="M 303.36 250.688 
C 305.73622 250.688 308.015436 249.743918 309.695677 248.063677 
C 311.375918 246.383436 312.32 244.10422 312.32 241.728 
C 312.32 239.35178 311.375918 237.072564 309.695677 235.392323 
C 308.015436 233.712082 305.73622 232.768 303.36 232.768 
C 300.98378 232.768 298.704564 233.712082 297.024323 235.392323 
C 295.344082 237.072564 294.4 239.35178 294.4 241.728 
C 294.4 244.10422 295.344082 246.383436 297.024323 248.063677 
C 298.704564 249.743918 300.98378 250.688 303.36 250.688 
z
" clip-path="url(#p8a2ab08387)" style="fill: #1f77b4"/>
   </g>
   <g id="PathCollection_26">
    <g clip-path="url(#p8a2ab08387)">
     <use xlink:href="#m557298990d" x="303.36" y="241.728" style="stroke: #000000"/>
    </g>
   </g>
   <g id="patch_29">
    <path d="M 303.36 205.888 
C 305.73622 205.888 308.015436 204.943918 309.695677 203.263677 
C 311.375918 201.583436 312.32 199.30422 312.32 196.928 
C 312.32 194.55178 311.375918 192.272564 309.695677 190.592323 
C 308.015436 188.912082 305.73622 187.968 303.36 187.968 
C 300.98378 187.968 298.704564 188.912082 297.024323 190.592323 
C 295.344082 192.272564 294.4 194.55178 294.4 196.928 
C 294.4 199.30422 295.344082 201.583436 297.024323 203.263677 
C 298.704564 204.943918 300.98378 205.888 303.36 205.888 
z
" clip-path="url(#p8a2ab08387)" style="fill: #1f77b4"/>
   </g>
   <g id="PathCollection_27">
    <g clip-path="url(#p8a2ab08387)">
     <use xlink:href="#m557298990d" x="303.36" y="196.928" style="stroke: #000000"/>
    </g>
   </g>
   <g id="patch_30">
    <path d="M 303.36 161.088 
C 305.73622 161.088 308.015436 160.143918 309.695677 158.463677 
C 311.375918 156.783436 312.32 154.50422 312.32 152.128 
C 312.32 149.75178 311.375918 147.472564 309.695677 145.792323 
C 308.015436 144.112082 305.73622 143.168 303.36 143.168 
C 300.98378 143.168 298.704564 144.112082 297.024323 145.792323 
C 295.344082 147.472564 294.4 149.75178 294.4 152.128 
C 294.4 154.50422 295.344082 156.783436 297.024323 158.463677 
C 298.704564 160.143918 300.98378 161.088 303.36 161.088 
z
" clip-path="url(#p8a2ab08387)" style="fill: #1f77b4"/>
   </g>
   <g id="PathCollection_28">
    <g clip-path="url(#p8a2ab08387)">
     <use xlink:href="#m557298990d" x="303.36" y="152.128" style="stroke: #000000"/>
    </g>
   </g>
   <g id="patch_31">
    <path d="M 303.36 116.288 
C 305.73622 116.288 308.015436 115.343918 309.695677 113.663677 
C 311.375918 111.983436 312.32 109.70422 312.32 107.328 
C 312.32 104.95178 311.375918 102.672564 309.695677 100.992323 
C 308.015436 99.312082 305.73622 98.368 303.36 98.368 
C 300.98378 98.368 298.704564 99.312082 297.024323 100.992323 
C 295.344082 102.672564 294.4 104.95178 294.4 107.328 
C 294.4 109.70422 295.344082 111.983436 297.024323 113.663677 
C 298.704564 115.343918 300.98378 116.288 303.36 116.288 
z
" clip-path="url(#p8a2ab08387)" style="fill: #1f77b4"/>
   </g>
   <g id="PathCollection_29">
    <g clip-path="url(#p8a2ab08387)">
     <use xlink:href="#m557298990d" x="303.36" y="107.328" style="stroke: #000000"/>
    </g>
   </g>
   <g id="patch_32">
    <path d="M 303.36 71.488 
C 305.73622 71.488 308.015436 70.543918 309.695677 68.863677 
C 311.375918 67.183436 312.32 64.90422 312.32 62.528 
C 312.32 60.15178 311.375918 57.872564 309.695677 56.192323 
C 308.015436 54.512082 305.73622 53.568 303.36 53.568 
C 300.98378 53.568 298.704564 54.512082 297.024323 56.192323 
C 295.344082 57.872564 294.4 60.15178 294.4 62.528 
C 294.4 64.90422 295.344082 67.183436 297.024323 68.863677 
C 298.704564 70.543918 300.98378 71.488 303.36 71.488 
z
" clip-path="url(#p8a2ab08387)" style="fill: #1f77b4"/>
   </g>
   <g id="PathCollection_30">
    <g clip-path="url(#p8a2ab08387)">
     <use xlink:href="#m557298990d" x="303.36" y="62.528" style="stroke: #000000"/>
    </g>
   </g>
   <g id="patch_33">
    <path d="M 348.16 295.488 
C 350.53622 295.488 352.815436 294.543918 354.495677 292.863677 
C 356.175918 291.183436 357.12 288.90422 357.12 286.528 
C 357.12 284.15178 356.175918 281.872564 354.495677 280.192323 
C 352.815436 278.512082 350.53622 277.568 348.16 277.568 
C 345.78378 277.568 343.504564 278.512082 341.824323 280.192323 
C 340.144082 281.872564 339.2 284.15178 339.2 286.528 
C 339.2 288.90422 340.144082 291.183436 341.824323 292.863677 
C 343.504564 294.543918 345.78378 295.488 348.16 295.488 
z
" clip-path="url(#p8a2ab08387)" style="fill: #1f77b4"/>
   </g>
   <g id="PathCollection_31">
    <g clip-path="url(#p8a2ab08387)">
     <use xlink:href="#m557298990d" x="348.16" y="286.528" style="stroke: #000000"/>
    </g>
   </g>
   <g id="patch_34">
    <path d="M 348.16 250.688 
C 350.53622 250.688 352.815436 249.743918 354.495677 248.063677 
C 356.175918 246.383436 357.12 244.10422 357.12 241.728 
C 357.12 239.35178 356.175918 237.072564 354.495677 235.392323 
C 352.815436 233.712082 350.53622 232.768 348.16 232.768 
C 345.78378 232.768 343.504564 233.712082 341.824323 235.392323 
C 340.144082 237.072564 339.2 239.35178 339.2 241.728 
C 339.2 244.10422 340.144082 246.383436 341.824323 248.063677 
C 343.504564 249.743918 345.78378 250.688 348.16 250.688 
z
" clip-path="url(#p8a2ab08387)" style="fill: #1f77b4"/>
   </g>
   <g id="PathCollection_32">
    <g clip-path="url(#p8a2ab08387)">
     <use xlink:href="#m557298990d" x="348.16" y="241.728" style="stroke: #000000"/>
    </g>
   </g>
   <g id="patch_35">
    <path d="M 348.16 205.888 
C 350.53622 205.888 352.815436 204.943918 354.495677 203.263677 
C 356.175918 201.583436 357.12 199.30422 357.12 196.928 
C 357.12 194.55178 356.175918 192.272564 354.495677 190.592323 
C 352.815436 188.912082 350.53622 187.968 348.16 187.968 
C 345.78378 187.968 343.504564 188.912082 341.824323 190.592323 
C 340.144082 192.272564 339.2 194.55178 339.2 196.928 
C 339.2 199.30422 340.144082 201.583436 341.824323 203.263677 
C 343.504564 204.943918 345.78378 205.888 348.16 205.888 
z
" clip-path="url(#p8a2ab08387)" style="fill: #1f77b4"/>
   </g>
   <g id="PathCollection_33">
    <g clip-path="url(#p8a2ab08387)">
     <use xlink:href="#m557298990d" x="348.16" y="196.928" style="stroke: #000000"/>
    </g>
   </g>
   <g id="patch_36">
    <path d="M 348.16 161.088 
C 350.53622 161.088 352.815436 160.143918 354.495677 158.463677 
C 356.175918 156.783436 357.12 154.50422 357.12 152.128 
C 357.12 149.75178 356.175918 147.472564 354.495677 145.792323 
C 352.815436 144.112082 350.53622 143.168 348.16 143.168 
C 345.78378 143.168 343.504564 144.112082 341.824323 145.792323 
C 340.144082 147.472564 339.2 149.75178 339.2 152.128 
C 339.2 154.50422 340.144082 156.783436 341.824323 158.463677 
C 343.504564 160.143918 345.78378 161.088 348.16 161.088 
z
" clip-path="url(#p8a2ab08387)" style="fill: #1f77b4"/>
   </g>
   <g id="PathCollection_34">
    <g clip-path="url(#p8a2ab08387)">
     <use xlink:href="#m557298990d" x="348.16" y="152.128" style="stroke: #000000"/>
    </g>
   </g>
   <g id="patch_37">
    <path d="M 348.16 116.288 
C 350.53622 116.288 352.815436 115.343918 354.495677 113.663677 
C 356.175918 111.983436 357.12 109.70422 357.12 107.328 
C 357.12 104.95178 356.175918 102.672564 354.495677 100.992323 
C 352.815436 99.312082 350.53622 98.368 348.16 98.368 
C 345.78378 98.368 343.504564 99.312082 341.824323 100.992323 
C 340.144082 102.672564 339.2 104.95178 339.2 107.328 
C 339.2 109.70422 340.144082 111.983436 341.824323 113.663677 
C 343.504564 115.343918 345.78378 116.288 348.16 116.288 
z
" clip-path="url(#p8a2ab08387)" style="fill: #1f77b4"/>
   </g>
   <g id="PathCollection_35">
    <g clip-path="url(#p8a2ab08387)">
     <use xlink:href="#m557298990d" x="348.16" y="107.328" style="stroke: #000000"/>
    </g>
   </g>
   <g id="patch_38">
    <path d="M 348.16 71.488 
C 350.53622 71.488 352.815436 70.543918 354.495677 68.863677 
C 356.175918 67.183436 357.12 64.90422 357.12 62.528 
C 357.12 60.15178 356.175918 57.872564 354.495677 56.192323 
C 352.815436 54.512082 350.53622 53.568 348.16 53.568 
C 345.78378 53.568 343.504564 54.512082 341.824323 56.192323 
C 340.144082 57.872564 339.2 60.15178 339.2 62.528 
C 339.2 64.90422 340.144082 67.183436 341.824323 68.863677 
C 343.504564 70.543918 345.78378 71.488 348.16 71.488 
z
" clip-path="url(#p8a2ab08387)" style="fill: #1f77b4"/>
   </g>
   <g id="PathCollection_36">
    <g clip-path="url(#p8a2ab08387)">
     <use xlink:href="#m557298990d" x="348.16" y="62.528" style="stroke: #000000"/>
    </g>
   </g>
   <g id="patch_39">
    <path d="M 142.08 282.048 
C 146.83244 282.048 151.390871 280.159836 154.751354 276.799354 
C 158.111836 273.438871 160 268.88044 160 264.128 
C 160 259.37556 158.111836 254.817129 154.751354 251.456646 
C 151.390871 248.096164 146.83244 246.208 142.08 246.208 
C 137.32756 246.208 132.769129 248.096164 129.408646 251.456646 
C 126.048164 254.817129 124.16 259.37556 124.16 264.128 
C 124.16 268.88044 126.048164 273.438871 129.408646 276.799354 
C 132.769129 280.159836 137.32756 282.048 142.08 282.048 
z
" clip-path="url(#p8a2ab08387)" style="fill: #ff0000; stroke: #ff0000; stroke-linejoin: miter"/>
   </g>
   <g id="PathCollection_37">
    <g clip-path="url(#p8a2ab08387)">
     <use xlink:href="#m557298990d" x="142.08" y="264.128" style="stroke: #000000"/>
    </g>
   </g>
   <g id="patch_40">
    <path d="M 142.08 237.248 
C 146.83244 237.248 151.390871 235.359836 154.751354 231.999354 
C 158.111836 228.638871 160 224.08044 160 219.328 
C 160 214.57556 158.111836 210.017129 154.751354 206.656646 
C 151.390871 203.296164 146.83244 201.408 142.08 201.408 
C 137.32756 201.408 132.769129 203.296164 129.408646 206.656646 
C 126.048164 210.017129 124.16 214.57556 124.16 219.328 
C 124.16 224.08044 126.048164 228.638871 129.408646 231.999354 
C 132.769129 235.359836 137.32756 237.248 142.08 237.248 
z
" clip-path="url(#p8a2ab08387)" style="fill: #ff0000; stroke: #ff0000; stroke-linejoin: miter"/>
   </g>
   <g id="PathCollection_38">
    <g clip-path="url(#p8a2ab08387)">
     <use xlink:href="#m557298990d" x="142.08" y="219.328" style="stroke: #000000"/>
    </g>
   </g>
   <g id="patch_41">
    <path d="M 142.08 192.448 
C 146.83244 192.448 151.390871 190.559836 154.751354 187.199354 
C 158.111836 183.838871 160 179.28044 160 174.528 
C 160 169.77556 158.111836 165.217129 154.751354 161.856646 
C 151.390871 158.496164 146.83244 156.608 142.08 156.608 
C 137.32756 156.608 132.769129 158.496164 129.408646 161.856646 
C 126.048164 165.217129 124.16 169.77556 124.16 174.528 
C 124.16 179.28044 126.048164 183.838871 129.408646 187.199354 
C 132.769129 190.559836 137.32756 192.448 142.08 192.448 
z
" clip-path="url(#p8a2ab08387)" style="fill: #ff0000; stroke: #ff0000; stroke-linejoin: miter"/>
   </g>
   <g id="PathCollection_39">
    <g clip-path="url(#p8a2ab08387)">
     <use xlink:href="#m557298990d" x="142.08" y="174.528" style="stroke: #000000"/>
    </g>
   </g>
   <g id="patch_42">
    <path d="M 142.08 147.648 
C 146.83244 147.648 151.390871 145.759836 154.751354 142.399354 
C 158.111836 139.038871 160 134.48044 160 129.728 
C 160 124.97556 158.111836 120.417129 154.751354 117.056646 
C 151.390871 113.696164 146.83244 111.808 142.08 111.808 
C 137.32756 111.808 132.769129 113.696164 129.408646 117.056646 
C 126.048164 120.417129 124.16 124.97556 124.16 129.728 
C 124.16 134.48044 126.048164 139.038871 129.408646 142.399354 
C 132.769129 145.759836 137.32756 147.648 142.08 147.648 
z
" clip-path="url(#p8a2ab08387)" style="fill: #ff0000; stroke: #ff0000; stroke-linejoin: miter"/>
   </g>
   <g id="PathCollection_40">
    <g clip-path="url(#p8a2ab08387)">
     <use xlink:href="#m557298990d" x="142.08" y="129.728" style="stroke: #000000"/>
    </g>
   </g>
   <g id="patch_43">
    <path d="M 142.08 102.848 
C 146.83244 102.848 151.390871 100.959836 154.751354 97.599354 
C 158.111836 94.238871 160 89.68044 160 84.928 
C 160 80.17556 158.111836 75.617129 154.751354 72.256646 
C 151.390871 68.896164 146.83244 67.008 142.08 67.008 
C 137.32756 67.008 132.769129 68.896164 129.408646 72.256646 
C 126.048164 75.617129 124.16 80.17556 124.16 84.928 
C 124.16 89.68044 126.048164 94.238871 129.408646 97.599354 
C 132.769129 100.959836 137.32756 102.848 142.08 102.848 
z
" clip-path="url(#p8a2ab08387)" style="fill: #ff0000; stroke: #ff0000; stroke-linejoin: miter"/>
   </g>
   <g id="PathCollection_41">
    <g clip-path="url(#p8a2ab08387)">
     <use xlink:href="#m557298990d" x="142.08" y="84.928" style="stroke: #000000"/>
    </g>
   </g>
   <g id="patch_44">
    <path d="M 191.36 282.048 
C 196.11244 282.048 200.670871 280.159836 204.031354 276.799354 
C 207.391836 273.438871 209.28 268.88044 209.28 264.128 
C 209.28 259.37556 207.391836 254.817129 204.031354 251.456646 
C 200.670871 248.096164 196.11244 246.208 191.36 246.208 
C 186.60756 246.208 182.049129 248.096164 178.688646 251.456646 
C 175.328164 254.817129 173.44 259.37556 173.44 264.128 
C 173.44 268.88044 175.328164 273.438871 178.688646 276.799354 
C 182.049129 280.159836 186.60756 282.048 191.36 282.048 
z
" clip-path="url(#p8a2ab08387)" style="fill: #ff0000; stroke: #ff0000; stroke-linejoin: miter"/>
   </g>
   <g id="PathCollection_42">
    <g clip-path="url(#p8a2ab08387)">
     <use xlink:href="#m557298990d" x="191.36" y="264.128" style="stroke: #000000"/>
    </g>
   </g>
   <g id="patch_45">
    <path d="M 191.36 237.248 
C 196.11244 237.248 200.670871 235.359836 204.031354 231.999354 
C 207.391836 228.638871 209.28 224.08044 209.28 219.328 
C 209.28 214.57556 207.391836 210.017129 204.031354 206.656646 
C 200.670871 203.296164 196.11244 201.408 191.36 201.408 
C 186.60756 201.408 182.049129 203.296164 178.688646 206.656646 
C 175.328164 210.017129 173.44 214.57556 173.44 219.328 
C 173.44 224.08044 175.328164 228.638871 178.688646 231.999354 
C 182.049129 235.359836 186.60756 237.248 191.36 237.248 
z
" clip-path="url(#p8a2ab08387)" style="fill: #ff0000; stroke: #ff0000; stroke-linejoin: miter"/>
   </g>
   <g id="PathCollection_43">
    <g clip-path="url(#p8a2ab08387)">
     <use xlink:href="#m557298990d" x="191.36" y="219.328" style="stroke: #000000"/>
    </g>
   </g>
   <g id="patch_46">
    <path d="M 191.36 192.448 
C 196.11244 192.448 200.670871 190.559836 204.031354 187.199354 
C 207.391836 183.838871 209.28 179.28044 209.28 174.528 
C 209.28 169.77556 207.391836 165.217129 204.031354 161.856646 
C 200.670871 158.496164 196.11244 156.608 191.36 156.608 
C 186.60756 156.608 182.049129 158.496164 178.688646 161.856646 
C 175.328164 165.217129 173.44 169.77556 173.44 174.528 
C 173.44 179.28044 175.328164 183.838871 178.688646 187.199354 
C 182.049129 190.559836 186.60756 192.448 191.36 192.448 
z
" clip-path="url(#p8a2ab08387)" style="fill: #ff0000; stroke: #ff0000; stroke-linejoin: miter"/>
   </g>
   <g id="PathCollection_44">
    <g clip-path="url(#p8a2ab08387)">
     <use xlink:href="#m557298990d" x="191.36" y="174.528" style="stroke: #000000"/>
    </g>
   </g>
   <g id="patch_47">
    <path d="M 191.36 147.648 
C 196.11244 147.648 200.670871 145.759836 204.031354 142.399354 
C 207.391836 139.038871 209.28 134.48044 209.28 129.728 
C 209.28 124.97556 207.391836 120.417129 204.031354 117.056646 
C 200.670871 113.696164 196.11244 111.808 191.36 111.808 
C 186.60756 111.808 182.049129 113.696164 178.688646 117.056646 
C 175.328164 120.417129 173.44 124.97556 173.44 129.728 
C 173.44 134.48044 175.328164 139.038871 178.688646 142.399354 
C 182.049129 145.759836 186.60756 147.648 191.36 147.648 
z
" clip-path="url(#p8a2ab08387)" style="fill: #ff0000; stroke: #ff0000; stroke-linejoin: miter"/>
   </g>
   <g id="PathCollection_45">
    <g clip-path="url(#p8a2ab08387)">
     <use xlink:href="#m557298990d" x="191.36" y="129.728" style="stroke: #000000"/>
    </g>
   </g>
   <g id="patch_48">
    <path d="M 191.36 102.848 
C 196.11244 102.848 200.670871 100.959836 204.031354 97.599354 
C 207.391836 94.238871 209.28 89.68044 209.28 84.928 
C 209.28 80.17556 207.391836 75.617129 204.031354 72.256646 
C 200.670871 68.896164 196.11244 67.008 191.36 67.008 
C 186.60756 67.008 182.049129 68.896164 178.688646 72.256646 
C 175.328164 75.617129 173.44 80.17556 173.44 84.928 
C 173.44 89.68044 175.328164 94.238871 178.688646 97.599354 
C 182.049129 100.959836 186.60756 102.848 191.36 102.848 
z
" clip-path="url(#p8a2ab08387)" style="fill: #ff0000; stroke: #ff0000; stroke-linejoin: miter"/>
   </g>
   <g id="PathCollection_46">
    <g clip-path="url(#p8a2ab08387)">
     <use xlink:href="#m557298990d" x="191.36" y="84.928" style="stroke: #000000"/>
    </g>
   </g>
   <g id="patch_49">
    <path d="M 240.64 282.048 
C 245.39244 282.048 249.950871 280.159836 253.311354 276.799354 
C 256.671836 273.438871 258.56 268.88044 258.56 264.128 
C 258.56 259.37556 256.671836 254.817129 253.311354 251.456646 
C 249.950871 248.096164 245.39244 246.208 240.64 246.208 
C 235.88756 246.208 231.329129 248.096164 227.968646 251.456646 
C 224.608164 254.817129 222.72 259.37556 222.72 264.128 
C 222.72 268.88044 224.608164 273.438871 227.968646 276.799354 
C 231.329129 280.159836 235.88756 282.048 240.64 282.048 
z
" clip-path="url(#p8a2ab08387)" style="fill: #ff0000; stroke: #ff0000; stroke-linejoin: miter"/>
   </g>
   <g id="PathCollection_47">
    <g clip-path="url(#p8a2ab08387)">
     <use xlink:href="#m557298990d" x="240.64" y="264.128" style="stroke: #000000"/>
    </g>
   </g>
   <g id="patch_50">
    <path d="M 240.64 237.248 
C 245.39244 237.248 249.950871 235.359836 253.311354 231.999354 
C 256.671836 228.638871 258.56 224.08044 258.56 219.328 
C 258.56 214.57556 256.671836 210.017129 253.311354 206.656646 
C 249.950871 203.296164 245.39244 201.408 240.64 201.408 
C 235.88756 201.408 231.329129 203.296164 227.968646 206.656646 
C 224.608164 210.017129 222.72 214.57556 222.72 219.328 
C 222.72 224.08044 224.608164 228.638871 227.968646 231.999354 
C 231.329129 235.359836 235.88756 237.248 240.64 237.248 
z
" clip-path="url(#p8a2ab08387)" style="fill: #ff0000; stroke: #ff0000; stroke-linejoin: miter"/>
   </g>
   <g id="PathCollection_48">
    <g clip-path="url(#p8a2ab08387)">
     <use xlink:href="#m557298990d" x="240.64" y="219.328" style="stroke: #000000"/>
    </g>
   </g>
   <g id="patch_51">
    <path d="M 240.64 192.448 
C 245.39244 192.448 249.950871 190.559836 253.311354 187.199354 
C 256.671836 183.838871 258.56 179.28044 258.56 174.528 
C 258.56 169.77556 256.671836 165.217129 253.311354 161.856646 
C 249.950871 158.496164 245.39244 156.608 240.64 156.608 
C 235.88756 156.608 231.329129 158.496164 227.968646 161.856646 
C 224.608164 165.217129 222.72 169.77556 222.72 174.528 
C 222.72 179.28044 224.608164 183.838871 227.968646 187.199354 
C 231.329129 190.559836 235.88756 192.448 240.64 192.448 
z
" clip-path="url(#p8a2ab08387)" style="fill: #ff0000; stroke: #ff0000; stroke-linejoin: miter"/>
   </g>
   <g id="PathCollection_49">
    <g clip-path="url(#p8a2ab08387)">
     <use xlink:href="#m557298990d" x="240.64" y="174.528" style="stroke: #000000"/>
    </g>
   </g>
   <g id="patch_52">
    <path d="M 240.64 147.648 
C 245.39244 147.648 249.950871 145.759836 253.311354 142.399354 
C 256.671836 139.038871 258.56 134.48044 258.56 129.728 
C 258.56 124.97556 256.671836 120.417129 253.311354 117.056646 
C 249.950871 113.696164 245.39244 111.808 240.64 111.808 
C 235.88756 111.808 231.329129 113.696164 227.968646 117.056646 
C 224.608164 120.417129 222.72 124.97556 222.72 129.728 
C 222.72 134.48044 224.608164 139.038871 227.968646 142.399354 
C 231.329129 145.759836 235.88756 147.648 240.64 147.648 
z
" clip-path="url(#p8a2ab08387)" style="fill: #ff0000; stroke: #ff0000; stroke-linejoin: miter"/>
   </g>
   <g id="PathCollection_50">
    <g clip-path="url(#p8a2ab08387)">
     <use xlink:href="#m557298990d" x="240.64" y="129.728" style="stroke: #000000"/>
    </g>
   </g>
   <g id="patch_53">
    <path d="M 240.64 102.848 
C 245.39244 102.848 249.950871 100.959836 253.311354 97.599354 
C 256.671836 94.238871 258.56 89.68044 258.56 84.928 
C 258.56 80.17556 256.671836 75.617129 253.311354 72.256646 
C 249.950871 68.896164 245.39244 67.008 240.64 67.008 
C 235.88756 67.008 231.329129 68.896164 227.968646 72.256646 
C 224.608164 75.617129 222.72 80.17556 222.72 84.928 
C 222.72 89.68044 224.608164 94.238871 227.968646 97.599354 
C 231.329129 100.959836 235.88756 102.848 240.64 102.848 
z
" clip-path="url(#p8a2ab08387)" style="fill: #ff0000; stroke: #ff0000; stroke-linejoin: miter"/>
   </g>
   <g id="PathCollection_51">
    <g clip-path="url(#p8a2ab08387)">
     <use xlink:href="#m557298990d" x="240.64" y="84.928" style="stroke: #000000"/>
    </g>
   </g>
   <g id="patch_54">
    <path d="M 285.44 282.048 
C 290.19244 282.048 294.750871 280.159836 298.111354 276.799354 
C 301.471836 273.438871 303.36 268.88044 303.36 264.128 
C 303.36 259.37556 301.471836 254.817129 298.111354 251.456646 
C 294.750871 248.096164 290.19244 246.208 285.44 246.208 
C 280.68756 246.208 276.129129 248.096164 272.768646 251.456646 
C 269.408164 254.817129 267.52 259.37556 267.52 264.128 
C 267.52 268.88044 269.408164 273.438871 272.768646 276.799354 
C 276.129129 280.159836 280.68756 282.048 285.44 282.048 
z
" clip-path="url(#p8a2ab08387)" style="fill: #ff0000; stroke: #ff0000; stroke-linejoin: miter"/>
   </g>
   <g id="PathCollection_52">
    <g clip-path="url(#p8a2ab08387)">
     <use xlink:href="#m557298990d" x="285.44" y="264.128" style="stroke: #000000"/>
    </g>
   </g>
   <g id="patch_55">
    <path d="M 285.44 237.248 
C 290.19244 237.248 294.750871 235.359836 298.111354 231.999354 
C 301.471836 228.638871 303.36 224.08044 303.36 219.328 
C 303.36 214.57556 301.471836 210.017129 298.111354 206.656646 
C 294.750871 203.296164 290.19244 201.408 285.44 201.408 
C 280.68756 201.408 276.129129 203.296164 272.768646 206.656646 
C 269.408164 210.017129 267.52 214.57556 267.52 219.328 
C 267.52 224.08044 269.408164 228.638871 272.768646 231.999354 
C 276.129129 235.359836 280.68756 237.248 285.44 237.248 
z
" clip-path="url(#p8a2ab08387)" style="fill: #ff0000; stroke: #ff0000; stroke-linejoin: miter"/>
   </g>
   <g id="PathCollection_53">
    <g clip-path="url(#p8a2ab08387)">
     <use xlink:href="#m557298990d" x="285.44" y="219.328" style="stroke: #000000"/>
    </g>
   </g>
   <g id="patch_56">
    <path d="M 285.44 192.448 
C 290.19244 192.448 294.750871 190.559836 298.111354 187.199354 
C 301.471836 183.838871 303.36 179.28044 303.36 174.528 
C 303.36 169.77556 301.471836 165.217129 298.111354 161.856646 
C 294.750871 158.496164 290.19244 156.608 285.44 156.608 
C 280.68756 156.608 276.129129 158.496164 272.768646 161.856646 
C 269.408164 165.217129 267.52 169.77556 267.52 174.528 
C 267.52 179.28044 269.408164 183.838871 272.768646 187.199354 
C 276.129129 190.559836 280.68756 192.448 285.44 192.448 
z
" clip-path="url(#p8a2ab08387)" style="fill: #ff0000; stroke: #ff0000; stroke-linejoin: miter"/>
   </g>
   <g id="PathCollection_54">
    <g clip-path="url(#p8a2ab08387)">
     <use xlink:href="#m557298990d" x="285.44" y="174.528" style="stroke: #000000"/>
    </g>
   </g>
   <g id="patch_57">
    <path d="M 285.44 147.648 
C 290.19244 147.648 294.750871 145.759836 298.111354 142.399354 
C 301.471836 139.038871 303.36 134.48044 303.36 129.728 
C 303.36 124.97556 301.471836 120.417129 298.111354 117.056646 
C 294.750871 113.696164 290.19244 111.808 285.44 111.808 
C 280.68756 111.808 276.129129 113.696164 272.768646 117.056646 
C 269.408164 120.417129 267.52 124.97556 267.52 129.728 
C 267.52 134.48044 269.408164 139.038871 272.768646 142.399354 
C 276.129129 145.759836 280.68756 147.648 285.44 147.648 
z
" clip-path="url(#p8a2ab08387)" style="fill: #ff0000; stroke: #ff0000; stroke-linejoin: miter"/>
   </g>
   <g id="PathCollection_55">
    <g clip-path="url(#p8a2ab08387)">
     <use xlink:href="#m557298990d" x="285.44" y="129.728" style="stroke: #000000"/>
    </g>
   </g>
   <g id="patch_58">
    <path d="M 285.44 102.848 
C 290.19244 102.848 294.750871 100.959836 298.111354 97.599354 
C 301.471836 94.238871 303.36 89.68044 303.36 84.928 
C 303.36 80.17556 301.471836 75.617129 298.111354 72.256646 
C 294.750871 68.896164 290.19244 67.008 285.44 67.008 
C 280.68756 67.008 276.129129 68.896164 272.768646 72.256646 
C 269.408164 75.617129 267.52 80.17556 267.52 84.928 
C 267.52 89.68044 269.408164 94.238871 272.768646 97.599354 
C 276.129129 100.959836 280.68756 102.848 285.44 102.848 
z
" clip-path="url(#p8a2ab08387)" style="fill: #ff0000; stroke: #ff0000; stroke-linejoin: miter"/>
   </g>
   <g id="PathCollection_56">
    <g clip-path="url(#p8a2ab08387)">
     <use xlink:href="#m557298990d" x="285.44" y="84.928" style="stroke: #000000"/>
    </g>
   </g>
   <g id="patch_59">
    <path d="M 325.76 286.528 
C 330.51244 286.528 335.070871 284.639836 338.431354 281.279354 
C 341.791836 277.918871 343.68 273.36044 343.68 268.608 
C 343.68 263.85556 341.791836 259.297129 338.431354 255.936646 
C 335.070871 252.576164 330.51244 250.688 325.76 250.688 
C 321.00756 250.688 316.449129 252.576164 313.088646 255.936646 
C 309.728164 259.297129 307.84 263.85556 307.84 268.608 
C 307.84 273.36044 309.728164 277.918871 313.088646 281.279354 
C 316.449129 284.639836 321.00756 286.528 325.76 286.528 
z
" clip-path="url(#p8a2ab08387)" style="fill: #ff0000; stroke: #ff0000; stroke-linejoin: miter"/>
   </g>
   <g id="PathCollection_57">
    <g clip-path="url(#p8a2ab08387)">
     <use xlink:href="#m557298990d" x="325.76" y="268.608" style="stroke: #000000"/>
    </g>
   </g>
   <g id="patch_60">
    <path d="M 325.76 241.728 
C 330.51244 241.728 335.070871 239.839836 338.431354 236.479354 
C 341.791836 233.118871 343.68 228.56044 343.68 223.808 
C 343.68 219.05556 341.791836 214.497129 338.431354 211.136646 
C 335.070871 207.776164 330.51244 205.888 325.76 205.888 
C 321.00756 205.888 316.449129 207.776164 313.088646 211.136646 
C 309.728164 214.497129 307.84 219.05556 307.84 223.808 
C 307.84 228.56044 309.728164 233.118871 313.088646 236.479354 
C 316.449129 239.839836 321.00756 241.728 325.76 241.728 
z
" clip-path="url(#p8a2ab08387)" style="fill: #ff0000; stroke: #ff0000; stroke-linejoin: miter"/>
   </g>
   <g id="PathCollection_58">
    <g clip-path="url(#p8a2ab08387)">
     <use xlink:href="#m557298990d" x="325.76" y="223.808" style="stroke: #000000"/>
    </g>
   </g>
   <g id="patch_61">
    <path d="M 325.76 196.928 
C 330.51244 196.928 335.070871 195.039836 338.431354 191.679354 
C 341.791836 188.318871 343.68 183.76044 343.68 179.008 
C 343.68 174.25556 341.791836 169.697129 338.431354 166.336646 
C 335.070871 162.976164 330.51244 161.088 325.76 161.088 
C 321.00756 161.088 316.449129 162.976164 313.088646 166.336646 
C 309.728164 169.697129 307.84 174.25556 307.84 179.008 
C 307.84 183.76044 309.728164 188.318871 313.088646 191.679354 
C 316.449129 195.039836 321.00756 196.928 325.76 196.928 
z
" clip-path="url(#p8a2ab08387)" style="fill: #ff0000; stroke: #ff0000; stroke-linejoin: miter"/>
   </g>
   <g id="PathCollection_59">
    <g clip-path="url(#p8a2ab08387)">
     <use xlink:href="#m557298990d" x="325.76" y="179.008" style="stroke: #000000"/>
    </g>
   </g>
   <g id="patch_62">
    <path d="M 325.76 152.128 
C 330.51244 152.128 335.070871 150.239836 338.431354 146.879354 
C 341.791836 143.518871 343.68 138.96044 343.68 134.208 
C 343.68 129.45556 341.791836 124.897129 338.431354 121.536646 
C 335.070871 118.176164 330.51244 116.288 325.76 116.288 
C 321.00756 116.288 316.449129 118.176164 313.088646 121.536646 
C 309.728164 124.897129 307.84 129.45556 307.84 134.208 
C 307.84 138.96044 309.728164 143.518871 313.088646 146.879354 
C 316.449129 150.239836 321.00756 152.128 325.76 152.128 
z
" clip-path="url(#p8a2ab08387)" style="fill: #ff0000; stroke: #ff0000; stroke-linejoin: miter"/>
   </g>
   <g id="PathCollection_60">
    <g clip-path="url(#p8a2ab08387)">
     <use xlink:href="#m557298990d" x="325.76" y="134.208" style="stroke: #000000"/>
    </g>
   </g>
   <g id="patch_63">
    <path d="M 325.76 107.328 
C 330.51244 107.328 335.070871 105.439836 338.431354 102.079354 
C 341.791836 98.718871 343.68 94.16044 343.68 89.408 
C 343.68 84.65556 341.791836 80.097129 338.431354 76.736646 
C 335.070871 73.376164 330.51244 71.488 325.76 71.488 
C 321.00756 71.488 316.449129 73.376164 313.088646 76.736646 
C 309.728164 80.097129 307.84 84.65556 307.84 89.408 
C 307.84 94.16044 309.728164 98.718871 313.088646 102.079354 
C 316.449129 105.439836 321.00756 107.328 325.76 107.328 
z
" clip-path="url(#p8a2ab08387)" style="fill: #ff0000; stroke: #ff0000; stroke-linejoin: miter"/>
   </g>
   <g id="PathCollection_61">
    <g clip-path="url(#p8a2ab08387)">
     <use xlink:href="#m557298990d" x="325.76" y="89.408" style="stroke: #000000"/>
    </g>
   </g>
   <g id="matplotlib.axis_1">
    <g id="xtick_1">
     <g id="line2d_1">
      <defs>
       <path id="mbd5f2783e5" d="M 0 0 
L 0 3.5 
" style="stroke: #000000; stroke-width: 0.8"/>
      </defs>
      <g>
       <use xlink:href="#mbd5f2783e5" x="124.16" y="307.584" style="stroke: #000000; stroke-width: 0.8"/>
      </g>
     </g>
     <g id="text_1">
      <!-- 0 -->
      <g transform="translate(120.97875 322.182437) scale(0.1 -0.1)">
       <defs>
        <path id="DejaVuSans-30" d="M 2034 4250 
Q 1547 4250 1301 3770 
Q 1056 3291 1056 2328 
Q 1056 1369 1301 889 
Q 1547 409 2034 409 
Q 2525 409 2770 889 
Q 3016 1369 3016 2328 
Q 3016 3291 2770 3770 
Q 2525 4250 2034 4250 
z
M 2034 4750 
Q 2819 4750 3233 4129 
Q 3647 3509 3647 2328 
Q 3647 1150 3233 529 
Q 2819 -91 2034 -91 
Q 1250 -91 836 529 
Q 422 1150 422 2328 
Q 422 3509 836 4129 
Q 1250 4750 2034 4750 
z
" transform="scale(0.015625)"/>
       </defs>
       <use xlink:href="#DejaVuSans-30"/>
      </g>
     </g>
    </g>
    <g id="xtick_2">
     <g id="line2d_2">
      <g>
       <use xlink:href="#mbd5f2783e5" x="168.96" y="307.584" style="stroke: #000000; stroke-width: 0.8"/>
      </g>
     </g>
     <g id="text_2">
      <!-- 5 -->
      <g transform="translate(165.77875 322.182437) scale(0.1 -0.1)">
       <defs>
        <path id="DejaVuSans-35" d="M 691 4666 
L 3169 4666 
L 3169 4134 
L 1269 4134 
L 1269 2991 
Q 1406 3038 1543 3061 
Q 1681 3084 1819 3084 
Q 2600 3084 3056 2656 
Q 3513 2228 3513 1497 
Q 3513 744 3044 326 
Q 2575 -91 1722 -91 
Q 1428 -91 1123 -41 
Q 819 9 494 109 
L 494 744 
Q 775 591 1075 516 
Q 1375 441 1709 441 
Q 2250 441 2565 725 
Q 2881 1009 2881 1497 
Q 2881 1984 2565 2268 
Q 2250 2553 1709 2553 
Q 1456 2553 1204 2497 
Q 953 2441 691 2322 
L 691 4666 
z
" transform="scale(0.015625)"/>
       </defs>
       <use xlink:href="#DejaVuSans-35"/>
      </g>
     </g>
    </g>
    <g id="xtick_3">
     <g id="line2d_3">
      <g>
       <use xlink:href="#mbd5f2783e5" x="213.76" y="307.584" style="stroke: #000000; stroke-width: 0.8"/>
      </g>
     </g>
     <g id="text_3">
      <!-- 10 -->
      <g transform="translate(207.3975 322.182437) scale(0.1 -0.1)">
       <defs>
        <path id="DejaVuSans-31" d="M 794 531 
L 1825 531 
L 1825 4091 
L 703 3866 
L 703 4441 
L 1819 4666 
L 2450 4666 
L 2450 531 
L 3481 531 
L 3481 0 
L 794 0 
L 794 531 
z
" transform="scale(0.015625)"/>
       </defs>
       <use xlink:href="#DejaVuSans-31"/>
       <use xlink:href="#DejaVuSans-30" x="63.623047"/>
      </g>
     </g>
    </g>
    <g id="xtick_4">
     <g id="line2d_4">
      <g>
       <use xlink:href="#mbd5f2783e5" x="258.56" y="307.584" style="stroke: #000000; stroke-width: 0.8"/>
      </g>
     </g>
     <g id="text_4">
      <!-- 15 -->
      <g transform="translate(252.1975 322.182437) scale(0.1 -0.1)">
       <use xlink:href="#DejaVuSans-31"/>
       <use xlink:href="#DejaVuSans-35" x="63.623047"/>
      </g>
     </g>
    </g>
    <g id="xtick_5">
     <g id="line2d_5">
      <g>
       <use xlink:href="#mbd5f2783e5" x="303.36" y="307.584" style="stroke: #000000; stroke-width: 0.8"/>
      </g>
     </g>
     <g id="text_5">
      <!-- 20 -->
      <g transform="translate(296.9975 322.182437) scale(0.1 -0.1)">
       <defs>
        <path id="DejaVuSans-32" d="M 1228 531 
L 3431 531 
L 3431 0 
L 469 0 
L 469 531 
Q 828 903 1448 1529 
Q 2069 2156 2228 2338 
Q 2531 2678 2651 2914 
Q 2772 3150 2772 3378 
Q 2772 3750 2511 3984 
Q 2250 4219 1831 4219 
Q 1534 4219 1204 4116 
Q 875 4013 500 3803 
L 500 4441 
Q 881 4594 1212 4672 
Q 1544 4750 1819 4750 
Q 2544 4750 2975 4387 
Q 3406 4025 3406 3419 
Q 3406 3131 3298 2873 
Q 3191 2616 2906 2266 
Q 2828 2175 2409 1742 
Q 1991 1309 1228 531 
z
" transform="scale(0.015625)"/>
       </defs>
       <use xlink:href="#DejaVuSans-32"/>
       <use xlink:href="#DejaVuSans-30" x="63.623047"/>
      </g>
     </g>
    </g>
    <g id="xtick_6">
     <g id="line2d_6">
      <g>
       <use xlink:href="#mbd5f2783e5" x="348.16" y="307.584" style="stroke: #000000; stroke-width: 0.8"/>
      </g>
     </g>
     <g id="text_6">
      <!-- 25 -->
      <g transform="translate(341.7975 322.182437) scale(0.1 -0.1)">
       <use xlink:href="#DejaVuSans-32"/>
       <use xlink:href="#DejaVuSans-35" x="63.623047"/>
      </g>
     </g>
    </g>
   </g>
   <g id="matplotlib.axis_2">
    <g id="ytick_1">
     <g id="line2d_7">
      <defs>
       <path id="md33c6e91cb" d="M 0 0 
L -3.5 0 
" style="stroke: #000000; stroke-width: 0.8"/>
      </defs>
      <g>
       <use xlink:href="#md33c6e91cb" x="103.104" y="286.528" style="stroke: #000000; stroke-width: 0.8"/>
      </g>
     </g>
     <g id="text_7">
      <!-- 0 -->
      <g transform="translate(89.7415 290.327219) scale(0.1 -0.1)">
       <use xlink:href="#DejaVuSans-30"/>
      </g>
     </g>
    </g>
    <g id="ytick_2">
     <g id="line2d_8">
      <g>
       <use xlink:href="#md33c6e91cb" x="103.104" y="241.728" style="stroke: #000000; stroke-width: 0.8"/>
      </g>
     </g>
     <g id="text_8">
      <!-- 5 -->
      <g transform="translate(89.7415 245.527219) scale(0.1 -0.1)">
       <use xlink:href="#DejaVuSans-35"/>
      </g>
     </g>
    </g>
    <g id="ytick_3">
     <g id="line2d_9">
      <g>
       <use xlink:href="#md33c6e91cb" x="103.104" y="196.928" style="stroke: #000000; stroke-width: 0.8"/>
      </g>
     </g>
     <g id="text_9">
      <!-- 10 -->
      <g transform="translate(83.379 200.727219) scale(0.1 -0.1)">
       <use xlink:href="#DejaVuSans-31"/>
       <use xlink:href="#DejaVuSans-30" x="63.623047"/>
      </g>
     </g>
    </g>
    <g id="ytick_4">
     <g id="line2d_10">
      <g>
       <use xlink:href="#md33c6e91cb" x="103.104" y="152.128" style="stroke: #000000; stroke-width: 0.8"/>
      </g>
     </g>
     <g id="text_10">
      <!-- 15 -->
      <g transform="translate(83.379 155.927219) scale(0.1 -0.1)">
       <use xlink:href="#DejaVuSans-31"/>
       <use xlink:href="#DejaVuSans-35" x="63.623047"/>
      </g>
     </g>
    </g>
    <g id="ytick_5">
     <g id="line2d_11">
      <g>
       <use xlink:href="#md33c6e91cb" x="103.104" y="107.328" style="stroke: #000000; stroke-width: 0.8"/>
      </g>
     </g>
     <g id="text_11">
      <!-- 20 -->
      <g transform="translate(83.379 111.127219) scale(0.1 -0.1)">
       <use xlink:href="#DejaVuSans-32"/>
       <use xlink:href="#DejaVuSans-30" x="63.623047"/>
      </g>
     </g>
    </g>
    <g id="ytick_6">
     <g id="line2d_12">
      <g>
       <use xlink:href="#md33c6e91cb" x="103.104" y="62.528" style="stroke: #000000; stroke-width: 0.8"/>
      </g>
     </g>
     <g id="text_12">
      <!-- 25 -->
      <g transform="translate(83.379 66.327219) scale(0.1 -0.1)">
       <use xlink:href="#DejaVuSans-32"/>
       <use xlink:href="#DejaVuSans-35" x="63.623047"/>
      </g>
     </g>
    </g>
   </g>
   <g id="line2d_13">
    <path d="M 124.16 286.528 
" clip-path="url(#p8a2ab08387)" style="fill: none; stroke: #1f77b4; stroke-width: 1.5; stroke-linecap: square"/>
   </g>
   <g id="patch_64">
    <path d="M 103.104 307.584 
L 103.104 41.472 
" style="fill: none; stroke: #000000; stroke-width: 0.8; stroke-linejoin: miter; stroke-linecap: square"/>
   </g>
   <g id="patch_65">
    <path d="M 369.216 307.584 
L 369.216 41.472 
" style="fill: none; stroke: #000000; stroke-width: 0.8; stroke-linejoin: miter; stroke-linecap: square"/>
   </g>
   <g id="patch_66">
    <path d="M 103.104 307.584 
L 369.216 307.584 
" style="fill: none; stroke: #000000; stroke-width: 0.8; stroke-linejoin: miter; stroke-linecap: square"/>
   </g>
   <g id="patch_67">
    <path d="M 103.104 41.472 
L 369.216 41.472 
" style="fill: none; stroke: #000000; stroke-width: 0.8; stroke-linejoin: miter; stroke-linecap: square"/>
   </g>
  </g>
 </g>
 <defs>
  <clipPath id="p8a2ab08387">
   <rect x="103.104" y="41.472" width="266.112" height="266.112"/>
  </clipPath>
 </defs>
</svg>
