<?xml version="1.0" encoding="utf-8" standalone="no"?>
<!DOCTYPE svg PUBLIC "-//W3C//DTD SVG 1.1//EN"
  "http://www.w3.org/Graphics/SVG/1.1/DTD/svg11.dtd">
<svg xmlns:xlink="http://www.w3.org/1999/xlink" width="460.8pt" height="345.6pt" viewBox="0 0 460.8 345.6" xmlns="http://www.w3.org/2000/svg" version="1.1">
 <metadata>
  <rdf:RDF xmlns:dc="http://purl.org/dc/elements/1.1/" xmlns:cc="http://creativecommons.org/ns#" xmlns:rdf="http://www.w3.org/1999/02/22-rdf-syntax-ns#">
   <cc:Work>
    <dc:type rdf:resource="http://purl.org/dc/dcmitype/StillImage"/>
    <dc:date>2024-02-19T10:20:44.513865</dc:date>
    <dc:format>image/svg+xml</dc:format>
    <dc:creator>
     <cc:Agent>
      <dc:title>Matplotlib v3.8.2, https://matplotlib.org/</dc:title>
     </cc:Agent>
    </dc:creator>
   </cc:Work>
  </rdf:RDF>
 </metadata>
 <defs>
  <style type="text/css">*{stroke-linejoin: round; stroke-linecap: butt}</style>
 </defs>
 <g id="figure_1">
  <g id="patch_1">
   <path d="M 0 345.6 
L 460.8 345.6 
L 460.8 0 
L 0 0 
z
" style="fill: #ffffff"/>
  </g>
  <g id="axes_1">
   <g id="patch_2">
    <path d="M 57.6 307.584 
L 414.72 307.584 
L 414.72 41.472 
L 57.6 41.472 
z
" style="fill: #ffffff"/>
   </g>
   <g id="matplotlib.axis_1">
    <g id="xtick_1">
     <g id="line2d_1">
      <defs>
       <path id="m4360839734" d="M 0 0 
L 0 3.5 
" style="stroke: #000000; stroke-width: 0.8"/>
      </defs>
      <g>
       <use xlink:href="#m4360839734" x="125.093971" y="307.584" style="stroke: #000000; stroke-width: 0.8"/>
      </g>
     </g>
     <g id="text_1">
      <!-- 20 -->
      <g transform="translate(118.731471 322.182437) scale(0.1 -0.1)">
       <defs>
        <path id="DejaVuSans-32" d="M 1228 531 
L 3431 531 
L 3431 0 
L 469 0 
L 469 531 
Q 828 903 1448 1529 
Q 2069 2156 2228 2338 
Q 2531 2678 2651 2914 
Q 2772 3150 2772 3378 
Q 2772 3750 2511 3984 
Q 2250 4219 1831 4219 
Q 1534 4219 1204 4116 
Q 875 4013 500 3803 
L 500 4441 
Q 881 4594 1212 4672 
Q 1544 4750 1819 4750 
Q 2544 4750 2975 4387 
Q 3406 4025 3406 3419 
Q 3406 3131 3298 2873 
Q 3191 2616 2906 2266 
Q 2828 2175 2409 1742 
Q 1991 1309 1228 531 
z
" transform="scale(0.015625)"/>
        <path id="DejaVuSans-30" d="M 2034 4250 
Q 1547 4250 1301 3770 
Q 1056 3291 1056 2328 
Q 1056 1369 1301 889 
Q 1547 409 2034 409 
Q 2525 409 2770 889 
Q 3016 1369 3016 2328 
Q 3016 3291 2770 3770 
Q 2525 4250 2034 4250 
z
M 2034 4750 
Q 2819 4750 3233 4129 
Q 3647 3509 3647 2328 
Q 3647 1150 3233 529 
Q 2819 -91 2034 -91 
Q 1250 -91 836 529 
Q 422 1150 422 2328 
Q 422 3509 836 4129 
Q 1250 4750 2034 4750 
z
" transform="scale(0.015625)"/>
       </defs>
       <use xlink:href="#DejaVuSans-32"/>
       <use xlink:href="#DejaVuSans-30" x="63.623047"/>
      </g>
     </g>
    </g>
    <g id="xtick_2">
     <g id="line2d_2">
      <g>
       <use xlink:href="#m4360839734" x="193.442297" y="307.584" style="stroke: #000000; stroke-width: 0.8"/>
      </g>
     </g>
     <g id="text_2">
      <!-- 40 -->
      <g transform="translate(187.079797 322.182437) scale(0.1 -0.1)">
       <defs>
        <path id="DejaVuSans-34" d="M 2419 4116 
L 825 1625 
L 2419 1625 
L 2419 4116 
z
M 2253 4666 
L 3047 4666 
L 3047 1625 
L 3713 1625 
L 3713 1100 
L 3047 1100 
L 3047 0 
L 2419 0 
L 2419 1100 
L 313 1100 
L 313 1709 
L 2253 4666 
z
" transform="scale(0.015625)"/>
       </defs>
       <use xlink:href="#DejaVuSans-34"/>
       <use xlink:href="#DejaVuSans-30" x="63.623047"/>
      </g>
     </g>
    </g>
    <g id="xtick_3">
     <g id="line2d_3">
      <g>
       <use xlink:href="#m4360839734" x="261.790622" y="307.584" style="stroke: #000000; stroke-width: 0.8"/>
      </g>
     </g>
     <g id="text_3">
      <!-- 60 -->
      <g transform="translate(255.428122 322.182437) scale(0.1 -0.1)">
       <defs>
        <path id="DejaVuSans-36" d="M 2113 2584 
Q 1688 2584 1439 2293 
Q 1191 2003 1191 1497 
Q 1191 994 1439 701 
Q 1688 409 2113 409 
Q 2538 409 2786 701 
Q 3034 994 3034 1497 
Q 3034 2003 2786 2293 
Q 2538 2584 2113 2584 
z
M 3366 4563 
L 3366 3988 
Q 3128 4100 2886 4159 
Q 2644 4219 2406 4219 
Q 1781 4219 1451 3797 
Q 1122 3375 1075 2522 
Q 1259 2794 1537 2939 
Q 1816 3084 2150 3084 
Q 2853 3084 3261 2657 
Q 3669 2231 3669 1497 
Q 3669 778 3244 343 
Q 2819 -91 2113 -91 
Q 1303 -91 875 529 
Q 447 1150 447 2328 
Q 447 3434 972 4092 
Q 1497 4750 2381 4750 
Q 2619 4750 2861 4703 
Q 3103 4656 3366 4563 
z
" transform="scale(0.015625)"/>
       </defs>
       <use xlink:href="#DejaVuSans-36"/>
       <use xlink:href="#DejaVuSans-30" x="63.623047"/>
      </g>
     </g>
    </g>
    <g id="xtick_4">
     <g id="line2d_4">
      <g>
       <use xlink:href="#m4360839734" x="330.138947" y="307.584" style="stroke: #000000; stroke-width: 0.8"/>
      </g>
     </g>
     <g id="text_4">
      <!-- 80 -->
      <g transform="translate(323.776447 322.182437) scale(0.1 -0.1)">
       <defs>
        <path id="DejaVuSans-38" d="M 2034 2216 
Q 1584 2216 1326 1975 
Q 1069 1734 1069 1313 
Q 1069 891 1326 650 
Q 1584 409 2034 409 
Q 2484 409 2743 651 
Q 3003 894 3003 1313 
Q 3003 1734 2745 1975 
Q 2488 2216 2034 2216 
z
M 1403 2484 
Q 997 2584 770 2862 
Q 544 3141 544 3541 
Q 544 4100 942 4425 
Q 1341 4750 2034 4750 
Q 2731 4750 3128 4425 
Q 3525 4100 3525 3541 
Q 3525 3141 3298 2862 
Q 3072 2584 2669 2484 
Q 3125 2378 3379 2068 
Q 3634 1759 3634 1313 
Q 3634 634 3220 271 
Q 2806 -91 2034 -91 
Q 1263 -91 848 271 
Q 434 634 434 1313 
Q 434 1759 690 2068 
Q 947 2378 1403 2484 
z
M 1172 3481 
Q 1172 3119 1398 2916 
Q 1625 2713 2034 2713 
Q 2441 2713 2670 2916 
Q 2900 3119 2900 3481 
Q 2900 3844 2670 4047 
Q 2441 4250 2034 4250 
Q 1625 4250 1398 4047 
Q 1172 3844 1172 3481 
z
" transform="scale(0.015625)"/>
       </defs>
       <use xlink:href="#DejaVuSans-38"/>
       <use xlink:href="#DejaVuSans-30" x="63.623047"/>
      </g>
     </g>
    </g>
    <g id="xtick_5">
     <g id="line2d_5">
      <g>
       <use xlink:href="#m4360839734" x="398.487273" y="307.584" style="stroke: #000000; stroke-width: 0.8"/>
      </g>
     </g>
     <g id="text_5">
      <!-- 100 -->
      <g transform="translate(388.943523 322.182437) scale(0.1 -0.1)">
       <defs>
        <path id="DejaVuSans-31" d="M 794 531 
L 1825 531 
L 1825 4091 
L 703 3866 
L 703 4441 
L 1819 4666 
L 2450 4666 
L 2450 531 
L 3481 531 
L 3481 0 
L 794 0 
L 794 531 
z
" transform="scale(0.015625)"/>
       </defs>
       <use xlink:href="#DejaVuSans-31"/>
       <use xlink:href="#DejaVuSans-30" x="63.623047"/>
       <use xlink:href="#DejaVuSans-30" x="127.246094"/>
      </g>
     </g>
    </g>
    <g id="text_6">
     <!-- Time, s -->
     <g transform="translate(218.143594 335.860562) scale(0.1 -0.1)">
      <defs>
       <path id="DejaVuSans-54" d="M -19 4666 
L 3928 4666 
L 3928 4134 
L 2272 4134 
L 2272 0 
L 1638 0 
L 1638 4134 
L -19 4134 
L -19 4666 
z
" transform="scale(0.015625)"/>
       <path id="DejaVuSans-69" d="M 603 3500 
L 1178 3500 
L 1178 0 
L 603 0 
L 603 3500 
z
M 603 4863 
L 1178 4863 
L 1178 4134 
L 603 4134 
L 603 4863 
z
" transform="scale(0.015625)"/>
       <path id="DejaVuSans-6d" d="M 3328 2828 
Q 3544 3216 3844 3400 
Q 4144 3584 4550 3584 
Q 5097 3584 5394 3201 
Q 5691 2819 5691 2113 
L 5691 0 
L 5113 0 
L 5113 2094 
Q 5113 2597 4934 2840 
Q 4756 3084 4391 3084 
Q 3944 3084 3684 2787 
Q 3425 2491 3425 1978 
L 3425 0 
L 2847 0 
L 2847 2094 
Q 2847 2600 2669 2842 
Q 2491 3084 2119 3084 
Q 1678 3084 1418 2786 
Q 1159 2488 1159 1978 
L 1159 0 
L 581 0 
L 581 3500 
L 1159 3500 
L 1159 2956 
Q 1356 3278 1631 3431 
Q 1906 3584 2284 3584 
Q 2666 3584 2933 3390 
Q 3200 3197 3328 2828 
z
" transform="scale(0.015625)"/>
       <path id="DejaVuSans-65" d="M 3597 1894 
L 3597 1613 
L 953 1613 
Q 991 1019 1311 708 
Q 1631 397 2203 397 
Q 2534 397 2845 478 
Q 3156 559 3463 722 
L 3463 178 
Q 3153 47 2828 -22 
Q 2503 -91 2169 -91 
Q 1331 -91 842 396 
Q 353 884 353 1716 
Q 353 2575 817 3079 
Q 1281 3584 2069 3584 
Q 2775 3584 3186 3129 
Q 3597 2675 3597 1894 
z
M 3022 2063 
Q 3016 2534 2758 2815 
Q 2500 3097 2075 3097 
Q 1594 3097 1305 2825 
Q 1016 2553 972 2059 
L 3022 2063 
z
" transform="scale(0.015625)"/>
       <path id="DejaVuSans-2c" d="M 750 794 
L 1409 794 
L 1409 256 
L 897 -744 
L 494 -744 
L 750 256 
L 750 794 
z
" transform="scale(0.015625)"/>
       <path id="DejaVuSans-20" transform="scale(0.015625)"/>
       <path id="DejaVuSans-73" d="M 2834 3397 
L 2834 2853 
Q 2591 2978 2328 3040 
Q 2066 3103 1784 3103 
Q 1356 3103 1142 2972 
Q 928 2841 928 2578 
Q 928 2378 1081 2264 
Q 1234 2150 1697 2047 
L 1894 2003 
Q 2506 1872 2764 1633 
Q 3022 1394 3022 966 
Q 3022 478 2636 193 
Q 2250 -91 1575 -91 
Q 1294 -91 989 -36 
Q 684 19 347 128 
L 347 722 
Q 666 556 975 473 
Q 1284 391 1588 391 
Q 1994 391 2212 530 
Q 2431 669 2431 922 
Q 2431 1156 2273 1281 
Q 2116 1406 1581 1522 
L 1381 1569 
Q 847 1681 609 1914 
Q 372 2147 372 2553 
Q 372 3047 722 3315 
Q 1072 3584 1716 3584 
Q 2034 3584 2315 3537 
Q 2597 3491 2834 3397 
z
" transform="scale(0.015625)"/>
      </defs>
      <use xlink:href="#DejaVuSans-54"/>
      <use xlink:href="#DejaVuSans-69" x="57.958984"/>
      <use xlink:href="#DejaVuSans-6d" x="85.742188"/>
      <use xlink:href="#DejaVuSans-65" x="183.154297"/>
      <use xlink:href="#DejaVuSans-2c" x="244.677734"/>
      <use xlink:href="#DejaVuSans-20" x="276.464844"/>
      <use xlink:href="#DejaVuSans-73" x="308.251953"/>
     </g>
    </g>
   </g>
   <g id="matplotlib.axis_2">
    <g id="ytick_1">
     <g id="line2d_6">
      <defs>
       <path id="m6953cdfe26" d="M 0 0 
L -3.5 0 
" style="stroke: #000000; stroke-width: 0.8"/>
      </defs>
      <g>
       <use xlink:href="#m6953cdfe26" x="57.6" y="271.369524" style="stroke: #000000; stroke-width: 0.8"/>
      </g>
     </g>
     <g id="text_7">
      <!-- 0.25 -->
      <g transform="translate(28.334375 275.168743) scale(0.1 -0.1)">
       <defs>
        <path id="DejaVuSans-2e" d="M 684 794 
L 1344 794 
L 1344 0 
L 684 0 
L 684 794 
z
" transform="scale(0.015625)"/>
        <path id="DejaVuSans-35" d="M 691 4666 
L 3169 4666 
L 3169 4134 
L 1269 4134 
L 1269 2991 
Q 1406 3038 1543 3061 
Q 1681 3084 1819 3084 
Q 2600 3084 3056 2656 
Q 3513 2228 3513 1497 
Q 3513 744 3044 326 
Q 2575 -91 1722 -91 
Q 1428 -91 1123 -41 
Q 819 9 494 109 
L 494 744 
Q 775 591 1075 516 
Q 1375 441 1709 441 
Q 2250 441 2565 725 
Q 2881 1009 2881 1497 
Q 2881 1984 2565 2268 
Q 2250 2553 1709 2553 
Q 1456 2553 1204 2497 
Q 953 2441 691 2322 
L 691 4666 
z
" transform="scale(0.015625)"/>
       </defs>
       <use xlink:href="#DejaVuSans-30"/>
       <use xlink:href="#DejaVuSans-2e" x="63.623047"/>
       <use xlink:href="#DejaVuSans-32" x="95.410156"/>
       <use xlink:href="#DejaVuSans-35" x="159.033203"/>
      </g>
     </g>
    </g>
    <g id="ytick_2">
     <g id="line2d_7">
      <g>
       <use xlink:href="#m6953cdfe26" x="57.6" y="234.560274" style="stroke: #000000; stroke-width: 0.8"/>
      </g>
     </g>
     <g id="text_8">
      <!-- 0.50 -->
      <g transform="translate(28.334375 238.359493) scale(0.1 -0.1)">
       <use xlink:href="#DejaVuSans-30"/>
       <use xlink:href="#DejaVuSans-2e" x="63.623047"/>
       <use xlink:href="#DejaVuSans-35" x="95.410156"/>
       <use xlink:href="#DejaVuSans-30" x="159.033203"/>
      </g>
     </g>
    </g>
    <g id="ytick_3">
     <g id="line2d_8">
      <g>
       <use xlink:href="#m6953cdfe26" x="57.6" y="197.751023" style="stroke: #000000; stroke-width: 0.8"/>
      </g>
     </g>
     <g id="text_9">
      <!-- 0.75 -->
      <g transform="translate(28.334375 201.550242) scale(0.1 -0.1)">
       <defs>
        <path id="DejaVuSans-37" d="M 525 4666 
L 3525 4666 
L 3525 4397 
L 1831 0 
L 1172 0 
L 2766 4134 
L 525 4134 
L 525 4666 
z
" transform="scale(0.015625)"/>
       </defs>
       <use xlink:href="#DejaVuSans-30"/>
       <use xlink:href="#DejaVuSans-2e" x="63.623047"/>
       <use xlink:href="#DejaVuSans-37" x="95.410156"/>
       <use xlink:href="#DejaVuSans-35" x="159.033203"/>
      </g>
     </g>
    </g>
    <g id="ytick_4">
     <g id="line2d_9">
      <g>
       <use xlink:href="#m6953cdfe26" x="57.6" y="160.941773" style="stroke: #000000; stroke-width: 0.8"/>
      </g>
     </g>
     <g id="text_10">
      <!-- 1.00 -->
      <g transform="translate(28.334375 164.740992) scale(0.1 -0.1)">
       <use xlink:href="#DejaVuSans-31"/>
       <use xlink:href="#DejaVuSans-2e" x="63.623047"/>
       <use xlink:href="#DejaVuSans-30" x="95.410156"/>
       <use xlink:href="#DejaVuSans-30" x="159.033203"/>
      </g>
     </g>
    </g>
    <g id="ytick_5">
     <g id="line2d_10">
      <g>
       <use xlink:href="#m6953cdfe26" x="57.6" y="124.132523" style="stroke: #000000; stroke-width: 0.8"/>
      </g>
     </g>
     <g id="text_11">
      <!-- 1.25 -->
      <g transform="translate(28.334375 127.931742) scale(0.1 -0.1)">
       <use xlink:href="#DejaVuSans-31"/>
       <use xlink:href="#DejaVuSans-2e" x="63.623047"/>
       <use xlink:href="#DejaVuSans-32" x="95.410156"/>
       <use xlink:href="#DejaVuSans-35" x="159.033203"/>
      </g>
     </g>
    </g>
    <g id="ytick_6">
     <g id="line2d_11">
      <g>
       <use xlink:href="#m6953cdfe26" x="57.6" y="87.323273" style="stroke: #000000; stroke-width: 0.8"/>
      </g>
     </g>
     <g id="text_12">
      <!-- 1.50 -->
      <g transform="translate(28.334375 91.122491) scale(0.1 -0.1)">
       <use xlink:href="#DejaVuSans-31"/>
       <use xlink:href="#DejaVuSans-2e" x="63.623047"/>
       <use xlink:href="#DejaVuSans-35" x="95.410156"/>
       <use xlink:href="#DejaVuSans-30" x="159.033203"/>
      </g>
     </g>
    </g>
    <g id="ytick_7">
     <g id="line2d_12">
      <g>
       <use xlink:href="#m6953cdfe26" x="57.6" y="50.514022" style="stroke: #000000; stroke-width: 0.8"/>
      </g>
     </g>
     <g id="text_13">
      <!-- 1.75 -->
      <g transform="translate(28.334375 54.313241) scale(0.1 -0.1)">
       <use xlink:href="#DejaVuSans-31"/>
       <use xlink:href="#DejaVuSans-2e" x="63.623047"/>
       <use xlink:href="#DejaVuSans-37" x="95.410156"/>
       <use xlink:href="#DejaVuSans-35" x="159.033203"/>
      </g>
     </g>
    </g>
    <g id="text_14">
     <!-- Average MSD, m^2 -->
     <g transform="translate(22.254687 223.407688) rotate(-90) scale(0.1 -0.1)">
      <defs>
       <path id="DejaVuSans-41" d="M 2188 4044 
L 1331 1722 
L 3047 1722 
L 2188 4044 
z
M 1831 4666 
L 2547 4666 
L 4325 0 
L 3669 0 
L 3244 1197 
L 1141 1197 
L 716 0 
L 50 0 
L 1831 4666 
z
" transform="scale(0.015625)"/>
       <path id="DejaVuSans-76" d="M 191 3500 
L 800 3500 
L 1894 563 
L 2988 3500 
L 3597 3500 
L 2284 0 
L 1503 0 
L 191 3500 
z
" transform="scale(0.015625)"/>
       <path id="DejaVuSans-72" d="M 2631 2963 
Q 2534 3019 2420 3045 
Q 2306 3072 2169 3072 
Q 1681 3072 1420 2755 
Q 1159 2438 1159 1844 
L 1159 0 
L 581 0 
L 581 3500 
L 1159 3500 
L 1159 2956 
Q 1341 3275 1631 3429 
Q 1922 3584 2338 3584 
Q 2397 3584 2469 3576 
Q 2541 3569 2628 3553 
L 2631 2963 
z
" transform="scale(0.015625)"/>
       <path id="DejaVuSans-61" d="M 2194 1759 
Q 1497 1759 1228 1600 
Q 959 1441 959 1056 
Q 959 750 1161 570 
Q 1363 391 1709 391 
Q 2188 391 2477 730 
Q 2766 1069 2766 1631 
L 2766 1759 
L 2194 1759 
z
M 3341 1997 
L 3341 0 
L 2766 0 
L 2766 531 
Q 2569 213 2275 61 
Q 1981 -91 1556 -91 
Q 1019 -91 701 211 
Q 384 513 384 1019 
Q 384 1609 779 1909 
Q 1175 2209 1959 2209 
L 2766 2209 
L 2766 2266 
Q 2766 2663 2505 2880 
Q 2244 3097 1772 3097 
Q 1472 3097 1187 3025 
Q 903 2953 641 2809 
L 641 3341 
Q 956 3463 1253 3523 
Q 1550 3584 1831 3584 
Q 2591 3584 2966 3190 
Q 3341 2797 3341 1997 
z
" transform="scale(0.015625)"/>
       <path id="DejaVuSans-67" d="M 2906 1791 
Q 2906 2416 2648 2759 
Q 2391 3103 1925 3103 
Q 1463 3103 1205 2759 
Q 947 2416 947 1791 
Q 947 1169 1205 825 
Q 1463 481 1925 481 
Q 2391 481 2648 825 
Q 2906 1169 2906 1791 
z
M 3481 434 
Q 3481 -459 3084 -895 
Q 2688 -1331 1869 -1331 
Q 1566 -1331 1297 -1286 
Q 1028 -1241 775 -1147 
L 775 -588 
Q 1028 -725 1275 -790 
Q 1522 -856 1778 -856 
Q 2344 -856 2625 -561 
Q 2906 -266 2906 331 
L 2906 616 
Q 2728 306 2450 153 
Q 2172 0 1784 0 
Q 1141 0 747 490 
Q 353 981 353 1791 
Q 353 2603 747 3093 
Q 1141 3584 1784 3584 
Q 2172 3584 2450 3431 
Q 2728 3278 2906 2969 
L 2906 3500 
L 3481 3500 
L 3481 434 
z
" transform="scale(0.015625)"/>
       <path id="DejaVuSans-4d" d="M 628 4666 
L 1569 4666 
L 2759 1491 
L 3956 4666 
L 4897 4666 
L 4897 0 
L 4281 0 
L 4281 4097 
L 3078 897 
L 2444 897 
L 1241 4097 
L 1241 0 
L 628 0 
L 628 4666 
z
" transform="scale(0.015625)"/>
       <path id="DejaVuSans-53" d="M 3425 4513 
L 3425 3897 
Q 3066 4069 2747 4153 
Q 2428 4238 2131 4238 
Q 1616 4238 1336 4038 
Q 1056 3838 1056 3469 
Q 1056 3159 1242 3001 
Q 1428 2844 1947 2747 
L 2328 2669 
Q 3034 2534 3370 2195 
Q 3706 1856 3706 1288 
Q 3706 609 3251 259 
Q 2797 -91 1919 -91 
Q 1588 -91 1214 -16 
Q 841 59 441 206 
L 441 856 
Q 825 641 1194 531 
Q 1563 422 1919 422 
Q 2459 422 2753 634 
Q 3047 847 3047 1241 
Q 3047 1584 2836 1778 
Q 2625 1972 2144 2069 
L 1759 2144 
Q 1053 2284 737 2584 
Q 422 2884 422 3419 
Q 422 4038 858 4394 
Q 1294 4750 2059 4750 
Q 2388 4750 2728 4690 
Q 3069 4631 3425 4513 
z
" transform="scale(0.015625)"/>
       <path id="DejaVuSans-44" d="M 1259 4147 
L 1259 519 
L 2022 519 
Q 2988 519 3436 956 
Q 3884 1394 3884 2338 
Q 3884 3275 3436 3711 
Q 2988 4147 2022 4147 
L 1259 4147 
z
M 628 4666 
L 1925 4666 
Q 3281 4666 3915 4102 
Q 4550 3538 4550 2338 
Q 4550 1131 3912 565 
Q 3275 0 1925 0 
L 628 0 
L 628 4666 
z
" transform="scale(0.015625)"/>
       <path id="DejaVuSans-5e" d="M 2988 4666 
L 4684 2925 
L 4056 2925 
L 2681 4159 
L 1306 2925 
L 678 2925 
L 2375 4666 
L 2988 4666 
z
" transform="scale(0.015625)"/>
      </defs>
      <use xlink:href="#DejaVuSans-41"/>
      <use xlink:href="#DejaVuSans-76" x="62.533203"/>
      <use xlink:href="#DejaVuSans-65" x="121.712891"/>
      <use xlink:href="#DejaVuSans-72" x="183.236328"/>
      <use xlink:href="#DejaVuSans-61" x="224.349609"/>
      <use xlink:href="#DejaVuSans-67" x="285.628906"/>
      <use xlink:href="#DejaVuSans-65" x="349.105469"/>
      <use xlink:href="#DejaVuSans-20" x="410.628906"/>
      <use xlink:href="#DejaVuSans-4d" x="442.416016"/>
      <use xlink:href="#DejaVuSans-53" x="528.695312"/>
      <use xlink:href="#DejaVuSans-44" x="592.171875"/>
      <use xlink:href="#DejaVuSans-2c" x="669.173828"/>
      <use xlink:href="#DejaVuSans-20" x="700.960938"/>
      <use xlink:href="#DejaVuSans-6d" x="732.748047"/>
      <use xlink:href="#DejaVuSans-5e" x="830.160156"/>
      <use xlink:href="#DejaVuSans-32" x="913.949219"/>
     </g>
    </g>
    <g id="text_15">
     <!-- 1e−5 -->
     <g transform="translate(57.6 38.472) scale(0.1 -0.1)">
      <defs>
       <path id="DejaVuSans-2212" d="M 678 2272 
L 4684 2272 
L 4684 1741 
L 678 1741 
L 678 2272 
z
" transform="scale(0.015625)"/>
      </defs>
      <use xlink:href="#DejaVuSans-31"/>
      <use xlink:href="#DejaVuSans-65" x="63.623047"/>
      <use xlink:href="#DejaVuSans-2212" x="125.146484"/>
      <use xlink:href="#DejaVuSans-35" x="208.935547"/>
     </g>
    </g>
   </g>
   <g id="LineCollection_1">
    <path d="M 73.832727 295.488 
L 73.832727 295.2296 
" clip-path="url(#pc5648c6a39)" style="fill: none; stroke: #ff0000; stroke-width: 1.5"/>
    <path d="M 90.919809 283.219233 
L 90.919809 282.074089 
" clip-path="url(#pc5648c6a39)" style="fill: none; stroke: #ff0000; stroke-width: 1.5"/>
    <path d="M 108.00689 269.041825 
L 108.00689 268.222579 
" clip-path="url(#pc5648c6a39)" style="fill: none; stroke: #ff0000; stroke-width: 1.5"/>
    <path d="M 125.093971 256.183526 
L 125.093971 255.015234 
" clip-path="url(#pc5648c6a39)" style="fill: none; stroke: #ff0000; stroke-width: 1.5"/>
    <path d="M 142.181053 243.763658 
L 142.181053 241.932652 
" clip-path="url(#pc5648c6a39)" style="fill: none; stroke: #ff0000; stroke-width: 1.5"/>
    <path d="M 159.268134 234.214612 
L 159.268134 230.2505 
" clip-path="url(#pc5648c6a39)" style="fill: none; stroke: #ff0000; stroke-width: 1.5"/>
    <path d="M 176.355215 219.396133 
L 176.355215 218.939077 
" clip-path="url(#pc5648c6a39)" style="fill: none; stroke: #ff0000; stroke-width: 1.5"/>
    <path d="M 193.442297 207.670705 
L 193.442297 205.522043 
" clip-path="url(#pc5648c6a39)" style="fill: none; stroke: #ff0000; stroke-width: 1.5"/>
    <path d="M 210.529378 194.975552 
L 210.529378 192.122427 
" clip-path="url(#pc5648c6a39)" style="fill: none; stroke: #ff0000; stroke-width: 1.5"/>
    <path d="M 227.616459 184.987945 
L 227.616459 179.246166 
" clip-path="url(#pc5648c6a39)" style="fill: none; stroke: #ff0000; stroke-width: 1.5"/>
    <path d="M 244.703541 171.579305 
L 244.703541 164.67267 
" clip-path="url(#pc5648c6a39)" style="fill: none; stroke: #ff0000; stroke-width: 1.5"/>
    <path d="M 261.790622 158.542532 
L 261.790622 150.307406 
" clip-path="url(#pc5648c6a39)" style="fill: none; stroke: #ff0000; stroke-width: 1.5"/>
    <path d="M 278.877703 146.717464 
L 278.877703 138.864452 
" clip-path="url(#pc5648c6a39)" style="fill: none; stroke: #ff0000; stroke-width: 1.5"/>
    <path d="M 295.964785 135.68032 
L 295.964785 127.592341 
" clip-path="url(#pc5648c6a39)" style="fill: none; stroke: #ff0000; stroke-width: 1.5"/>
    <path d="M 313.051866 123.822466 
L 313.051866 114.727168 
" clip-path="url(#pc5648c6a39)" style="fill: none; stroke: #ff0000; stroke-width: 1.5"/>
    <path d="M 330.138947 112.393278 
L 330.138947 100.653386 
" clip-path="url(#pc5648c6a39)" style="fill: none; stroke: #ff0000; stroke-width: 1.5"/>
    <path d="M 347.226029 100.067833 
L 347.226029 86.386679 
" clip-path="url(#pc5648c6a39)" style="fill: none; stroke: #ff0000; stroke-width: 1.5"/>
    <path d="M 364.31311 87.601032 
L 364.31311 74.300334 
" clip-path="url(#pc5648c6a39)" style="fill: none; stroke: #ff0000; stroke-width: 1.5"/>
    <path d="M 381.400191 75.589 
L 381.400191 65.218464 
" clip-path="url(#pc5648c6a39)" style="fill: none; stroke: #ff0000; stroke-width: 1.5"/>
    <path d="M 398.487273 63.107924 
L 398.487273 53.568 
" clip-path="url(#pc5648c6a39)" style="fill: none; stroke: #ff0000; stroke-width: 1.5"/>
   </g>
   <g id="line2d_13">
    <defs>
     <path id="maa6a52f9cd" d="M 5 0 
L -5 -0 
" style="stroke: #ff0000"/>
    </defs>
    <g clip-path="url(#pc5648c6a39)">
     <use xlink:href="#maa6a52f9cd" x="73.832727" y="295.488" style="fill: #ff0000; stroke: #ff0000"/>
     <use xlink:href="#maa6a52f9cd" x="90.919809" y="283.219233" style="fill: #ff0000; stroke: #ff0000"/>
     <use xlink:href="#maa6a52f9cd" x="108.00689" y="269.041825" style="fill: #ff0000; stroke: #ff0000"/>
     <use xlink:href="#maa6a52f9cd" x="125.093971" y="256.183526" style="fill: #ff0000; stroke: #ff0000"/>
     <use xlink:href="#maa6a52f9cd" x="142.181053" y="243.763658" style="fill: #ff0000; stroke: #ff0000"/>
     <use xlink:href="#maa6a52f9cd" x="159.268134" y="234.214612" style="fill: #ff0000; stroke: #ff0000"/>
     <use xlink:href="#maa6a52f9cd" x="176.355215" y="219.396133" style="fill: #ff0000; stroke: #ff0000"/>
     <use xlink:href="#maa6a52f9cd" x="193.442297" y="207.670705" style="fill: #ff0000; stroke: #ff0000"/>
     <use xlink:href="#maa6a52f9cd" x="210.529378" y="194.975552" style="fill: #ff0000; stroke: #ff0000"/>
     <use xlink:href="#maa6a52f9cd" x="227.616459" y="184.987945" style="fill: #ff0000; stroke: #ff0000"/>
     <use xlink:href="#maa6a52f9cd" x="244.703541" y="171.579305" style="fill: #ff0000; stroke: #ff0000"/>
     <use xlink:href="#maa6a52f9cd" x="261.790622" y="158.542532" style="fill: #ff0000; stroke: #ff0000"/>
     <use xlink:href="#maa6a52f9cd" x="278.877703" y="146.717464" style="fill: #ff0000; stroke: #ff0000"/>
     <use xlink:href="#maa6a52f9cd" x="295.964785" y="135.68032" style="fill: #ff0000; stroke: #ff0000"/>
     <use xlink:href="#maa6a52f9cd" x="313.051866" y="123.822466" style="fill: #ff0000; stroke: #ff0000"/>
     <use xlink:href="#maa6a52f9cd" x="330.138947" y="112.393278" style="fill: #ff0000; stroke: #ff0000"/>
     <use xlink:href="#maa6a52f9cd" x="347.226029" y="100.067833" style="fill: #ff0000; stroke: #ff0000"/>
     <use xlink:href="#maa6a52f9cd" x="364.31311" y="87.601032" style="fill: #ff0000; stroke: #ff0000"/>
     <use xlink:href="#maa6a52f9cd" x="381.400191" y="75.589" style="fill: #ff0000; stroke: #ff0000"/>
     <use xlink:href="#maa6a52f9cd" x="398.487273" y="63.107924" style="fill: #ff0000; stroke: #ff0000"/>
    </g>
   </g>
   <g id="line2d_14">
    <g clip-path="url(#pc5648c6a39)">
     <use xlink:href="#maa6a52f9cd" x="73.832727" y="295.2296" style="fill: #ff0000; stroke: #ff0000"/>
     <use xlink:href="#maa6a52f9cd" x="90.919809" y="282.074089" style="fill: #ff0000; stroke: #ff0000"/>
     <use xlink:href="#maa6a52f9cd" x="108.00689" y="268.222579" style="fill: #ff0000; stroke: #ff0000"/>
     <use xlink:href="#maa6a52f9cd" x="125.093971" y="255.015234" style="fill: #ff0000; stroke: #ff0000"/>
     <use xlink:href="#maa6a52f9cd" x="142.181053" y="241.932652" style="fill: #ff0000; stroke: #ff0000"/>
     <use xlink:href="#maa6a52f9cd" x="159.268134" y="230.2505" style="fill: #ff0000; stroke: #ff0000"/>
     <use xlink:href="#maa6a52f9cd" x="176.355215" y="218.939077" style="fill: #ff0000; stroke: #ff0000"/>
     <use xlink:href="#maa6a52f9cd" x="193.442297" y="205.522043" style="fill: #ff0000; stroke: #ff0000"/>
     <use xlink:href="#maa6a52f9cd" x="210.529378" y="192.122427" style="fill: #ff0000; stroke: #ff0000"/>
     <use xlink:href="#maa6a52f9cd" x="227.616459" y="179.246166" style="fill: #ff0000; stroke: #ff0000"/>
     <use xlink:href="#maa6a52f9cd" x="244.703541" y="164.67267" style="fill: #ff0000; stroke: #ff0000"/>
     <use xlink:href="#maa6a52f9cd" x="261.790622" y="150.307406" style="fill: #ff0000; stroke: #ff0000"/>
     <use xlink:href="#maa6a52f9cd" x="278.877703" y="138.864452" style="fill: #ff0000; stroke: #ff0000"/>
     <use xlink:href="#maa6a52f9cd" x="295.964785" y="127.592341" style="fill: #ff0000; stroke: #ff0000"/>
     <use xlink:href="#maa6a52f9cd" x="313.051866" y="114.727168" style="fill: #ff0000; stroke: #ff0000"/>
     <use xlink:href="#maa6a52f9cd" x="330.138947" y="100.653386" style="fill: #ff0000; stroke: #ff0000"/>
     <use xlink:href="#maa6a52f9cd" x="347.226029" y="86.386679" style="fill: #ff0000; stroke: #ff0000"/>
     <use xlink:href="#maa6a52f9cd" x="364.31311" y="74.300334" style="fill: #ff0000; stroke: #ff0000"/>
     <use xlink:href="#maa6a52f9cd" x="381.400191" y="65.218464" style="fill: #ff0000; stroke: #ff0000"/>
     <use xlink:href="#maa6a52f9cd" x="398.487273" y="53.568" style="fill: #ff0000; stroke: #ff0000"/>
    </g>
   </g>
   <g id="line2d_15">
    <defs>
     <path id="mc0741cc0db" d="M 0 3 
C 0.795609 3 1.55874 2.683901 2.12132 2.12132 
C 2.683901 1.55874 3 0.795609 3 0 
C 3 -0.795609 2.683901 -1.55874 2.12132 -2.12132 
C 1.55874 -2.683901 0.795609 -3 0 -3 
C -0.795609 -3 -1.55874 -2.683901 -2.12132 -2.12132 
C -2.683901 -1.55874 -3 -0.795609 -3 0 
C -3 0.795609 -2.683901 1.55874 -2.12132 2.12132 
C -1.55874 2.683901 -0.795609 3 0 3 
z
" style="stroke: #1f77b4"/>
    </defs>
    <g clip-path="url(#pc5648c6a39)">
     <use xlink:href="#mc0741cc0db" x="73.832727" y="295.3588" style="fill: #1f77b4; stroke: #1f77b4"/>
     <use xlink:href="#mc0741cc0db" x="90.919809" y="282.646661" style="fill: #1f77b4; stroke: #1f77b4"/>
     <use xlink:href="#mc0741cc0db" x="108.00689" y="268.632202" style="fill: #1f77b4; stroke: #1f77b4"/>
     <use xlink:href="#mc0741cc0db" x="125.093971" y="255.59938" style="fill: #1f77b4; stroke: #1f77b4"/>
     <use xlink:href="#mc0741cc0db" x="142.181053" y="242.848155" style="fill: #1f77b4; stroke: #1f77b4"/>
     <use xlink:href="#mc0741cc0db" x="159.268134" y="232.232556" style="fill: #1f77b4; stroke: #1f77b4"/>
     <use xlink:href="#mc0741cc0db" x="176.355215" y="219.167605" style="fill: #1f77b4; stroke: #1f77b4"/>
     <use xlink:href="#mc0741cc0db" x="193.442297" y="206.596374" style="fill: #1f77b4; stroke: #1f77b4"/>
     <use xlink:href="#mc0741cc0db" x="210.529378" y="193.548989" style="fill: #1f77b4; stroke: #1f77b4"/>
     <use xlink:href="#mc0741cc0db" x="227.616459" y="182.117055" style="fill: #1f77b4; stroke: #1f77b4"/>
     <use xlink:href="#mc0741cc0db" x="244.703541" y="168.125987" style="fill: #1f77b4; stroke: #1f77b4"/>
     <use xlink:href="#mc0741cc0db" x="261.790622" y="154.424969" style="fill: #1f77b4; stroke: #1f77b4"/>
     <use xlink:href="#mc0741cc0db" x="278.877703" y="142.790958" style="fill: #1f77b4; stroke: #1f77b4"/>
     <use xlink:href="#mc0741cc0db" x="295.964785" y="131.636331" style="fill: #1f77b4; stroke: #1f77b4"/>
     <use xlink:href="#mc0741cc0db" x="313.051866" y="119.274817" style="fill: #1f77b4; stroke: #1f77b4"/>
     <use xlink:href="#mc0741cc0db" x="330.138947" y="106.523332" style="fill: #1f77b4; stroke: #1f77b4"/>
     <use xlink:href="#mc0741cc0db" x="347.226029" y="93.227256" style="fill: #1f77b4; stroke: #1f77b4"/>
     <use xlink:href="#mc0741cc0db" x="364.31311" y="80.950683" style="fill: #1f77b4; stroke: #1f77b4"/>
     <use xlink:href="#mc0741cc0db" x="381.400191" y="70.403732" style="fill: #1f77b4; stroke: #1f77b4"/>
     <use xlink:href="#mc0741cc0db" x="398.487273" y="58.337962" style="fill: #1f77b4; stroke: #1f77b4"/>
    </g>
   </g>
   <g id="patch_3">
    <path d="M 57.6 307.584 
L 57.6 41.472 
" style="fill: none; stroke: #000000; stroke-width: 0.8; stroke-linejoin: miter; stroke-linecap: square"/>
   </g>
   <g id="patch_4">
    <path d="M 414.72 307.584 
L 414.72 41.472 
" style="fill: none; stroke: #000000; stroke-width: 0.8; stroke-linejoin: miter; stroke-linecap: square"/>
   </g>
   <g id="patch_5">
    <path d="M 57.6 307.584 
L 414.72 307.584 
" style="fill: none; stroke: #000000; stroke-width: 0.8; stroke-linejoin: miter; stroke-linecap: square"/>
   </g>
   <g id="patch_6">
    <path d="M 57.6 41.472 
L 414.72 41.472 
" style="fill: none; stroke: #000000; stroke-width: 0.8; stroke-linejoin: miter; stroke-linecap: square"/>
   </g>
  </g>
 </g>
 <defs>
  <clipPath id="pc5648c6a39">
   <rect x="57.6" y="41.472" width="357.12" height="266.112"/>
  </clipPath>
 </defs>
</svg>
