<?xml version="1.0" encoding="utf-8" standalone="no"?>
<!DOCTYPE svg PUBLIC "-//W3C//DTD SVG 1.1//EN"
  "http://www.w3.org/Graphics/SVG/1.1/DTD/svg11.dtd">
<svg xmlns:xlink="http://www.w3.org/1999/xlink" width="460.8pt" height="345.6pt" viewBox="0 0 460.8 345.6" xmlns="http://www.w3.org/2000/svg" version="1.1">
 <metadata>
  <rdf:RDF xmlns:dc="http://purl.org/dc/elements/1.1/" xmlns:cc="http://creativecommons.org/ns#" xmlns:rdf="http://www.w3.org/1999/02/22-rdf-syntax-ns#">
   <cc:Work>
    <dc:type rdf:resource="http://purl.org/dc/dcmitype/StillImage"/>
    <dc:date>2023-12-29T14:50:31.186848</dc:date>
    <dc:format>image/svg+xml</dc:format>
    <dc:creator>
     <cc:Agent>
      <dc:title>Matplotlib v3.8.2, https://matplotlib.org/</dc:title>
     </cc:Agent>
    </dc:creator>
   </cc:Work>
  </rdf:RDF>
 </metadata>
 <defs>
  <style type="text/css">*{stroke-linejoin: round; stroke-linecap: butt}</style>
 </defs>
 <g id="figure_1">
  <g id="patch_1">
   <path d="M 0 345.6 
L 460.8 345.6 
L 460.8 0 
L 0 0 
z
" style="fill: #ffffff"/>
  </g>
  <g id="axes_1">
   <g id="patch_2">
    <path d="M 57.6 307.584 
L 414.72 307.584 
L 414.72 41.472 
L 57.6 41.472 
z
" style="fill: #ffffff"/>
   </g>
   <g id="matplotlib.axis_1">
    <g id="xtick_1">
     <g id="line2d_1">
      <defs>
       <path id="m1e9a913598" d="M 0 0 
L 0 3.5 
" style="stroke: #000000; stroke-width: 0.8"/>
      </defs>
      <g>
       <use xlink:href="#m1e9a913598" x="100.887273" y="307.584" style="stroke: #000000; stroke-width: 0.8"/>
      </g>
     </g>
     <g id="text_1">
      <!-- 0.2 -->
      <g transform="translate(92.93571 322.182437) scale(0.1 -0.1)">
       <defs>
        <path id="DejaVuSans-30" d="M 2034 4250 
Q 1547 4250 1301 3770 
Q 1056 3291 1056 2328 
Q 1056 1369 1301 889 
Q 1547 409 2034 409 
Q 2525 409 2770 889 
Q 3016 1369 3016 2328 
Q 3016 3291 2770 3770 
Q 2525 4250 2034 4250 
z
M 2034 4750 
Q 2819 4750 3233 4129 
Q 3647 3509 3647 2328 
Q 3647 1150 3233 529 
Q 2819 -91 2034 -91 
Q 1250 -91 836 529 
Q 422 1150 422 2328 
Q 422 3509 836 4129 
Q 1250 4750 2034 4750 
z
" transform="scale(0.015625)"/>
        <path id="DejaVuSans-2e" d="M 684 794 
L 1344 794 
L 1344 0 
L 684 0 
L 684 794 
z
" transform="scale(0.015625)"/>
        <path id="DejaVuSans-32" d="M 1228 531 
L 3431 531 
L 3431 0 
L 469 0 
L 469 531 
Q 828 903 1448 1529 
Q 2069 2156 2228 2338 
Q 2531 2678 2651 2914 
Q 2772 3150 2772 3378 
Q 2772 3750 2511 3984 
Q 2250 4219 1831 4219 
Q 1534 4219 1204 4116 
Q 875 4013 500 3803 
L 500 4441 
Q 881 4594 1212 4672 
Q 1544 4750 1819 4750 
Q 2544 4750 2975 4387 
Q 3406 4025 3406 3419 
Q 3406 3131 3298 2873 
Q 3191 2616 2906 2266 
Q 2828 2175 2409 1742 
Q 1991 1309 1228 531 
z
" transform="scale(0.015625)"/>
       </defs>
       <use xlink:href="#DejaVuSans-30"/>
       <use xlink:href="#DejaVuSans-2e" x="63.623047"/>
       <use xlink:href="#DejaVuSans-32" x="95.410156"/>
      </g>
     </g>
    </g>
    <g id="xtick_2">
     <g id="line2d_2">
      <g>
       <use xlink:href="#m1e9a913598" x="168.523636" y="307.584" style="stroke: #000000; stroke-width: 0.8"/>
      </g>
     </g>
     <g id="text_2">
      <!-- 0.3 -->
      <g transform="translate(160.572074 322.182437) scale(0.1 -0.1)">
       <defs>
        <path id="DejaVuSans-33" d="M 2597 2516 
Q 3050 2419 3304 2112 
Q 3559 1806 3559 1356 
Q 3559 666 3084 287 
Q 2609 -91 1734 -91 
Q 1441 -91 1130 -33 
Q 819 25 488 141 
L 488 750 
Q 750 597 1062 519 
Q 1375 441 1716 441 
Q 2309 441 2620 675 
Q 2931 909 2931 1356 
Q 2931 1769 2642 2001 
Q 2353 2234 1838 2234 
L 1294 2234 
L 1294 2753 
L 1863 2753 
Q 2328 2753 2575 2939 
Q 2822 3125 2822 3475 
Q 2822 3834 2567 4026 
Q 2313 4219 1838 4219 
Q 1578 4219 1281 4162 
Q 984 4106 628 3988 
L 628 4550 
Q 988 4650 1302 4700 
Q 1616 4750 1894 4750 
Q 2613 4750 3031 4423 
Q 3450 4097 3450 3541 
Q 3450 3153 3228 2886 
Q 3006 2619 2597 2516 
z
" transform="scale(0.015625)"/>
       </defs>
       <use xlink:href="#DejaVuSans-30"/>
       <use xlink:href="#DejaVuSans-2e" x="63.623047"/>
       <use xlink:href="#DejaVuSans-33" x="95.410156"/>
      </g>
     </g>
    </g>
    <g id="xtick_3">
     <g id="line2d_3">
      <g>
       <use xlink:href="#m1e9a913598" x="236.16" y="307.584" style="stroke: #000000; stroke-width: 0.8"/>
      </g>
     </g>
     <g id="text_3">
      <!-- 0.4 -->
      <g transform="translate(228.208438 322.182437) scale(0.1 -0.1)">
       <defs>
        <path id="DejaVuSans-34" d="M 2419 4116 
L 825 1625 
L 2419 1625 
L 2419 4116 
z
M 2253 4666 
L 3047 4666 
L 3047 1625 
L 3713 1625 
L 3713 1100 
L 3047 1100 
L 3047 0 
L 2419 0 
L 2419 1100 
L 313 1100 
L 313 1709 
L 2253 4666 
z
" transform="scale(0.015625)"/>
       </defs>
       <use xlink:href="#DejaVuSans-30"/>
       <use xlink:href="#DejaVuSans-2e" x="63.623047"/>
       <use xlink:href="#DejaVuSans-34" x="95.410156"/>
      </g>
     </g>
    </g>
    <g id="xtick_4">
     <g id="line2d_4">
      <g>
       <use xlink:href="#m1e9a913598" x="303.796364" y="307.584" style="stroke: #000000; stroke-width: 0.8"/>
      </g>
     </g>
     <g id="text_4">
      <!-- 0.5 -->
      <g transform="translate(295.844801 322.182437) scale(0.1 -0.1)">
       <defs>
        <path id="DejaVuSans-35" d="M 691 4666 
L 3169 4666 
L 3169 4134 
L 1269 4134 
L 1269 2991 
Q 1406 3038 1543 3061 
Q 1681 3084 1819 3084 
Q 2600 3084 3056 2656 
Q 3513 2228 3513 1497 
Q 3513 744 3044 326 
Q 2575 -91 1722 -91 
Q 1428 -91 1123 -41 
Q 819 9 494 109 
L 494 744 
Q 775 591 1075 516 
Q 1375 441 1709 441 
Q 2250 441 2565 725 
Q 2881 1009 2881 1497 
Q 2881 1984 2565 2268 
Q 2250 2553 1709 2553 
Q 1456 2553 1204 2497 
Q 953 2441 691 2322 
L 691 4666 
z
" transform="scale(0.015625)"/>
       </defs>
       <use xlink:href="#DejaVuSans-30"/>
       <use xlink:href="#DejaVuSans-2e" x="63.623047"/>
       <use xlink:href="#DejaVuSans-35" x="95.410156"/>
      </g>
     </g>
    </g>
    <g id="xtick_5">
     <g id="line2d_5">
      <g>
       <use xlink:href="#m1e9a913598" x="371.432727" y="307.584" style="stroke: #000000; stroke-width: 0.8"/>
      </g>
     </g>
     <g id="text_5">
      <!-- 0.6 -->
      <g transform="translate(363.481165 322.182437) scale(0.1 -0.1)">
       <defs>
        <path id="DejaVuSans-36" d="M 2113 2584 
Q 1688 2584 1439 2293 
Q 1191 2003 1191 1497 
Q 1191 994 1439 701 
Q 1688 409 2113 409 
Q 2538 409 2786 701 
Q 3034 994 3034 1497 
Q 3034 2003 2786 2293 
Q 2538 2584 2113 2584 
z
M 3366 4563 
L 3366 3988 
Q 3128 4100 2886 4159 
Q 2644 4219 2406 4219 
Q 1781 4219 1451 3797 
Q 1122 3375 1075 2522 
Q 1259 2794 1537 2939 
Q 1816 3084 2150 3084 
Q 2853 3084 3261 2657 
Q 3669 2231 3669 1497 
Q 3669 778 3244 343 
Q 2819 -91 2113 -91 
Q 1303 -91 875 529 
Q 447 1150 447 2328 
Q 447 3434 972 4092 
Q 1497 4750 2381 4750 
Q 2619 4750 2861 4703 
Q 3103 4656 3366 4563 
z
" transform="scale(0.015625)"/>
       </defs>
       <use xlink:href="#DejaVuSans-30"/>
       <use xlink:href="#DejaVuSans-2e" x="63.623047"/>
       <use xlink:href="#DejaVuSans-36" x="95.410156"/>
      </g>
     </g>
    </g>
    <g id="text_6">
     <!-- R -->
     <g transform="translate(232.685781 335.860562) scale(0.1 -0.1)">
      <defs>
       <path id="DejaVuSans-52" d="M 2841 2188 
Q 3044 2119 3236 1894 
Q 3428 1669 3622 1275 
L 4263 0 
L 3584 0 
L 2988 1197 
Q 2756 1666 2539 1819 
Q 2322 1972 1947 1972 
L 1259 1972 
L 1259 0 
L 628 0 
L 628 4666 
L 2053 4666 
Q 2853 4666 3247 4331 
Q 3641 3997 3641 3322 
Q 3641 2881 3436 2590 
Q 3231 2300 2841 2188 
z
M 1259 4147 
L 1259 2491 
L 2053 2491 
Q 2509 2491 2742 2702 
Q 2975 2913 2975 3322 
Q 2975 3731 2742 3939 
Q 2509 4147 2053 4147 
L 1259 4147 
z
" transform="scale(0.015625)"/>
      </defs>
      <use xlink:href="#DejaVuSans-52"/>
     </g>
    </g>
   </g>
   <g id="matplotlib.axis_2">
    <g id="ytick_1">
     <g id="line2d_6">
      <defs>
       <path id="m0a5832e13f" d="M 0 0 
L -3.5 0 
" style="stroke: #000000; stroke-width: 0.8"/>
      </defs>
      <g>
       <use xlink:href="#m0a5832e13f" x="57.6" y="296.407313" style="stroke: #000000; stroke-width: 0.8"/>
      </g>
     </g>
     <g id="text_7">
      <!-- −0.3 -->
      <g transform="translate(26.317187 300.206531) scale(0.1 -0.1)">
       <defs>
        <path id="DejaVuSans-2212" d="M 678 2272 
L 4684 2272 
L 4684 1741 
L 678 1741 
L 678 2272 
z
" transform="scale(0.015625)"/>
       </defs>
       <use xlink:href="#DejaVuSans-2212"/>
       <use xlink:href="#DejaVuSans-30" x="83.789062"/>
       <use xlink:href="#DejaVuSans-2e" x="147.412109"/>
       <use xlink:href="#DejaVuSans-33" x="179.199219"/>
      </g>
     </g>
    </g>
    <g id="ytick_2">
     <g id="line2d_7">
      <g>
       <use xlink:href="#m0a5832e13f" x="57.6" y="247.740125" style="stroke: #000000; stroke-width: 0.8"/>
      </g>
     </g>
     <g id="text_8">
      <!-- −0.2 -->
      <g transform="translate(26.317187 251.539344) scale(0.1 -0.1)">
       <use xlink:href="#DejaVuSans-2212"/>
       <use xlink:href="#DejaVuSans-30" x="83.789062"/>
       <use xlink:href="#DejaVuSans-2e" x="147.412109"/>
       <use xlink:href="#DejaVuSans-32" x="179.199219"/>
      </g>
     </g>
    </g>
    <g id="ytick_3">
     <g id="line2d_8">
      <g>
       <use xlink:href="#m0a5832e13f" x="57.6" y="199.072937" style="stroke: #000000; stroke-width: 0.8"/>
      </g>
     </g>
     <g id="text_9">
      <!-- −0.1 -->
      <g transform="translate(26.317187 202.872156) scale(0.1 -0.1)">
       <defs>
        <path id="DejaVuSans-31" d="M 794 531 
L 1825 531 
L 1825 4091 
L 703 3866 
L 703 4441 
L 1819 4666 
L 2450 4666 
L 2450 531 
L 3481 531 
L 3481 0 
L 794 0 
L 794 531 
z
" transform="scale(0.015625)"/>
       </defs>
       <use xlink:href="#DejaVuSans-2212"/>
       <use xlink:href="#DejaVuSans-30" x="83.789062"/>
       <use xlink:href="#DejaVuSans-2e" x="147.412109"/>
       <use xlink:href="#DejaVuSans-31" x="179.199219"/>
      </g>
     </g>
    </g>
    <g id="ytick_4">
     <g id="line2d_9">
      <g>
       <use xlink:href="#m0a5832e13f" x="57.6" y="150.405749" style="stroke: #000000; stroke-width: 0.8"/>
      </g>
     </g>
     <g id="text_10">
      <!-- 0.0 -->
      <g transform="translate(34.696875 154.204968) scale(0.1 -0.1)">
       <use xlink:href="#DejaVuSans-30"/>
       <use xlink:href="#DejaVuSans-2e" x="63.623047"/>
       <use xlink:href="#DejaVuSans-30" x="95.410156"/>
      </g>
     </g>
    </g>
    <g id="ytick_5">
     <g id="line2d_10">
      <g>
       <use xlink:href="#m0a5832e13f" x="57.6" y="101.738562" style="stroke: #000000; stroke-width: 0.8"/>
      </g>
     </g>
     <g id="text_11">
      <!-- 0.1 -->
      <g transform="translate(34.696875 105.53778) scale(0.1 -0.1)">
       <use xlink:href="#DejaVuSans-30"/>
       <use xlink:href="#DejaVuSans-2e" x="63.623047"/>
       <use xlink:href="#DejaVuSans-31" x="95.410156"/>
      </g>
     </g>
    </g>
    <g id="ytick_6">
     <g id="line2d_11">
      <g>
       <use xlink:href="#m0a5832e13f" x="57.6" y="53.071374" style="stroke: #000000; stroke-width: 0.8"/>
      </g>
     </g>
     <g id="text_12">
      <!-- 0.2 -->
      <g transform="translate(34.696875 56.870593) scale(0.1 -0.1)">
       <use xlink:href="#DejaVuSans-30"/>
       <use xlink:href="#DejaVuSans-2e" x="63.623047"/>
       <use xlink:href="#DejaVuSans-32" x="95.410156"/>
      </g>
     </g>
    </g>
    <g id="text_13">
     <!-- S -->
     <g transform="translate(20.2375 177.702219) rotate(-90) scale(0.1 -0.1)">
      <defs>
       <path id="DejaVuSans-53" d="M 3425 4513 
L 3425 3897 
Q 3066 4069 2747 4153 
Q 2428 4238 2131 4238 
Q 1616 4238 1336 4038 
Q 1056 3838 1056 3469 
Q 1056 3159 1242 3001 
Q 1428 2844 1947 2747 
L 2328 2669 
Q 3034 2534 3370 2195 
Q 3706 1856 3706 1288 
Q 3706 609 3251 259 
Q 2797 -91 1919 -91 
Q 1588 -91 1214 -16 
Q 841 59 441 206 
L 441 856 
Q 825 641 1194 531 
Q 1563 422 1919 422 
Q 2459 422 2753 634 
Q 3047 847 3047 1241 
Q 3047 1584 2836 1778 
Q 2625 1972 2144 2069 
L 1759 2144 
Q 1053 2284 737 2584 
Q 422 2884 422 3419 
Q 422 4038 858 4394 
Q 1294 4750 2059 4750 
Q 2388 4750 2728 4690 
Q 3069 4631 3425 4513 
z
" transform="scale(0.015625)"/>
      </defs>
      <use xlink:href="#DejaVuSans-53"/>
     </g>
    </g>
   </g>
   <g id="LineCollection_1">
    <path d="M 73.832727 295.488 
L 73.832727 112.391312 
" clip-path="url(#pdfb3f3748a)" style="fill: none; stroke: #ff0000; stroke-width: 1.5"/>
    <path d="M 114.414545 188.842873 
L 114.414545 53.568 
" clip-path="url(#pdfb3f3748a)" style="fill: none; stroke: #ff0000; stroke-width: 1.5"/>
    <path d="M 154.996364 235.371221 
L 154.996364 75.173715 
" clip-path="url(#pdfb3f3748a)" style="fill: none; stroke: #ff0000; stroke-width: 1.5"/>
    <path d="M 195.578182 188.906244 
L 195.578182 63.238067 
" clip-path="url(#pdfb3f3748a)" style="fill: none; stroke: #ff0000; stroke-width: 1.5"/>
    <path d="M 236.16 221.838945 
L 236.16 117.906304 
" clip-path="url(#pdfb3f3748a)" style="fill: none; stroke: #ff0000; stroke-width: 1.5"/>
    <path d="M 276.741818 207.721189 
L 276.741818 93.09031 
" clip-path="url(#pdfb3f3748a)" style="fill: none; stroke: #ff0000; stroke-width: 1.5"/>
    <path d="M 317.323636 244.100472 
L 317.323636 144.311964 
" clip-path="url(#pdfb3f3748a)" style="fill: none; stroke: #ff0000; stroke-width: 1.5"/>
    <path d="M 357.905455 190.521742 
L 357.905455 81.089444 
" clip-path="url(#pdfb3f3748a)" style="fill: none; stroke: #ff0000; stroke-width: 1.5"/>
    <path d="M 398.487273 256.402118 
L 398.487273 112.543443 
" clip-path="url(#pdfb3f3748a)" style="fill: none; stroke: #ff0000; stroke-width: 1.5"/>
   </g>
   <g id="line2d_12">
    <defs>
     <path id="m99f25757c7" d="M 5 0 
L -5 -0 
" style="stroke: #ff0000"/>
    </defs>
    <g clip-path="url(#pdfb3f3748a)">
     <use xlink:href="#m99f25757c7" x="73.832727" y="295.488" style="fill: #ff0000; stroke: #ff0000"/>
     <use xlink:href="#m99f25757c7" x="114.414545" y="188.842873" style="fill: #ff0000; stroke: #ff0000"/>
     <use xlink:href="#m99f25757c7" x="154.996364" y="235.371221" style="fill: #ff0000; stroke: #ff0000"/>
     <use xlink:href="#m99f25757c7" x="195.578182" y="188.906244" style="fill: #ff0000; stroke: #ff0000"/>
     <use xlink:href="#m99f25757c7" x="236.16" y="221.838945" style="fill: #ff0000; stroke: #ff0000"/>
     <use xlink:href="#m99f25757c7" x="276.741818" y="207.721189" style="fill: #ff0000; stroke: #ff0000"/>
     <use xlink:href="#m99f25757c7" x="317.323636" y="244.100472" style="fill: #ff0000; stroke: #ff0000"/>
     <use xlink:href="#m99f25757c7" x="357.905455" y="190.521742" style="fill: #ff0000; stroke: #ff0000"/>
     <use xlink:href="#m99f25757c7" x="398.487273" y="256.402118" style="fill: #ff0000; stroke: #ff0000"/>
    </g>
   </g>
   <g id="line2d_13">
    <g clip-path="url(#pdfb3f3748a)">
     <use xlink:href="#m99f25757c7" x="73.832727" y="112.391312" style="fill: #ff0000; stroke: #ff0000"/>
     <use xlink:href="#m99f25757c7" x="114.414545" y="53.568" style="fill: #ff0000; stroke: #ff0000"/>
     <use xlink:href="#m99f25757c7" x="154.996364" y="75.173715" style="fill: #ff0000; stroke: #ff0000"/>
     <use xlink:href="#m99f25757c7" x="195.578182" y="63.238067" style="fill: #ff0000; stroke: #ff0000"/>
     <use xlink:href="#m99f25757c7" x="236.16" y="117.906304" style="fill: #ff0000; stroke: #ff0000"/>
     <use xlink:href="#m99f25757c7" x="276.741818" y="93.09031" style="fill: #ff0000; stroke: #ff0000"/>
     <use xlink:href="#m99f25757c7" x="317.323636" y="144.311964" style="fill: #ff0000; stroke: #ff0000"/>
     <use xlink:href="#m99f25757c7" x="357.905455" y="81.089444" style="fill: #ff0000; stroke: #ff0000"/>
     <use xlink:href="#m99f25757c7" x="398.487273" y="112.543443" style="fill: #ff0000; stroke: #ff0000"/>
    </g>
   </g>
   <g id="line2d_14">
    <defs>
     <path id="m4094256946" d="M 0 3 
C 0.795609 3 1.55874 2.683901 2.12132 2.12132 
C 2.683901 1.55874 3 0.795609 3 0 
C 3 -0.795609 2.683901 -1.55874 2.12132 -2.12132 
C 1.55874 -2.683901 0.795609 -3 0 -3 
C -0.795609 -3 -1.55874 -2.683901 -2.12132 -2.12132 
C -2.683901 -1.55874 -3 -0.795609 -3 0 
C -3 0.795609 -2.683901 1.55874 -2.12132 2.12132 
C -1.55874 2.683901 -0.795609 3 0 3 
z
" style="stroke: #ff7f0e"/>
    </defs>
    <g clip-path="url(#pdfb3f3748a)">
     <use xlink:href="#m4094256946" x="73.832727" y="203.939656" style="fill: #ff7f0e; stroke: #ff7f0e"/>
     <use xlink:href="#m4094256946" x="114.414545" y="121.205437" style="fill: #ff7f0e; stroke: #ff7f0e"/>
     <use xlink:href="#m4094256946" x="154.996364" y="155.272468" style="fill: #ff7f0e; stroke: #ff7f0e"/>
     <use xlink:href="#m4094256946" x="195.578182" y="126.072156" style="fill: #ff7f0e; stroke: #ff7f0e"/>
     <use xlink:href="#m4094256946" x="236.16" y="169.872624" style="fill: #ff7f0e; stroke: #ff7f0e"/>
     <use xlink:href="#m4094256946" x="276.741818" y="150.405749" style="fill: #ff7f0e; stroke: #ff7f0e"/>
     <use xlink:href="#m4094256946" x="317.323636" y="194.206218" style="fill: #ff7f0e; stroke: #ff7f0e"/>
     <use xlink:href="#m4094256946" x="357.905455" y="135.805593" style="fill: #ff7f0e; stroke: #ff7f0e"/>
     <use xlink:href="#m4094256946" x="398.487273" y="184.472781" style="fill: #ff7f0e; stroke: #ff7f0e"/>
    </g>
   </g>
   <g id="line2d_15">
    <defs>
     <path id="m3aea8a8f8c" d="M 0 3 
C 0.795609 3 1.55874 2.683901 2.12132 2.12132 
C 2.683901 1.55874 3 0.795609 3 0 
C 3 -0.795609 2.683901 -1.55874 2.12132 -2.12132 
C 1.55874 -2.683901 0.795609 -3 0 -3 
C -0.795609 -3 -1.55874 -2.683901 -2.12132 -2.12132 
C -2.683901 -1.55874 -3 -0.795609 -3 0 
C -3 0.795609 -2.683901 1.55874 -2.12132 2.12132 
C -1.55874 2.683901 -0.795609 3 0 3 
z
" style="stroke: #1f77b4"/>
    </defs>
    <g clip-path="url(#pdfb3f3748a)">
     <use xlink:href="#m3aea8a8f8c" x="73.832727" y="203.939656" style="fill: #1f77b4; stroke: #1f77b4"/>
     <use xlink:href="#m3aea8a8f8c" x="114.414545" y="121.205437" style="fill: #1f77b4; stroke: #1f77b4"/>
     <use xlink:href="#m3aea8a8f8c" x="154.996364" y="155.272468" style="fill: #1f77b4; stroke: #1f77b4"/>
     <use xlink:href="#m3aea8a8f8c" x="195.578182" y="126.072156" style="fill: #1f77b4; stroke: #1f77b4"/>
     <use xlink:href="#m3aea8a8f8c" x="236.16" y="169.872624" style="fill: #1f77b4; stroke: #1f77b4"/>
     <use xlink:href="#m3aea8a8f8c" x="276.741818" y="150.405749" style="fill: #1f77b4; stroke: #1f77b4"/>
     <use xlink:href="#m3aea8a8f8c" x="317.323636" y="194.206218" style="fill: #1f77b4; stroke: #1f77b4"/>
     <use xlink:href="#m3aea8a8f8c" x="357.905455" y="135.805593" style="fill: #1f77b4; stroke: #1f77b4"/>
     <use xlink:href="#m3aea8a8f8c" x="398.487273" y="184.472781" style="fill: #1f77b4; stroke: #1f77b4"/>
    </g>
   </g>
   <g id="patch_3">
    <path d="M 57.6 307.584 
L 57.6 41.472 
" style="fill: none; stroke: #000000; stroke-width: 0.8; stroke-linejoin: miter; stroke-linecap: square"/>
   </g>
   <g id="patch_4">
    <path d="M 414.72 307.584 
L 414.72 41.472 
" style="fill: none; stroke: #000000; stroke-width: 0.8; stroke-linejoin: miter; stroke-linecap: square"/>
   </g>
   <g id="patch_5">
    <path d="M 57.6 307.584 
L 414.72 307.584 
" style="fill: none; stroke: #000000; stroke-width: 0.8; stroke-linejoin: miter; stroke-linecap: square"/>
   </g>
   <g id="patch_6">
    <path d="M 57.6 41.472 
L 414.72 41.472 
" style="fill: none; stroke: #000000; stroke-width: 0.8; stroke-linejoin: miter; stroke-linecap: square"/>
   </g>
   <g id="text_14">
    <!-- Зависимость параметра тетратического порядка  -->
    <g transform="translate(76.884375 22.034625) scale(0.12 -0.12)">
     <defs>
      <path id="DejaVuSans-417" d="M 1828 4750 
Q 2597 4750 3084 4423 
Q 3572 4097 3572 3541 
Q 3572 3153 3350 2886 
Q 3128 2619 2719 2516 
Q 3172 2419 3426 2112 
Q 3681 1806 3681 1356 
Q 3681 638 3126 273 
Q 2572 -91 1828 -91 
Q 1447 -91 1003 12 
Q 559 116 422 203 
L 422 853 
Q 900 575 1164 508 
Q 1428 441 1816 441 
Q 2403 441 2728 666 
Q 3053 891 3053 1356 
Q 3053 1769 2764 2001 
Q 2475 2234 1866 2234 
L 1228 2234 
L 1228 2753 
L 1891 2753 
Q 2450 2753 2697 2939 
Q 2944 3125 2944 3475 
Q 2944 3834 2689 4026 
Q 2434 4219 1816 4219 
Q 1397 4219 1253 4181 
Q 1109 4144 469 3903 
L 469 4519 
Q 822 4644 1190 4697 
Q 1559 4750 1828 4750 
z
" transform="scale(0.015625)"/>
      <path id="DejaVuSans-430" d="M 2194 1759 
Q 1497 1759 1228 1600 
Q 959 1441 959 1056 
Q 959 750 1161 570 
Q 1363 391 1709 391 
Q 2188 391 2477 730 
Q 2766 1069 2766 1631 
L 2766 1759 
L 2194 1759 
z
M 3341 1997 
L 3341 0 
L 2766 0 
L 2766 531 
Q 2569 213 2275 61 
Q 1981 -91 1556 -91 
Q 1019 -91 701 211 
Q 384 513 384 1019 
Q 384 1609 779 1909 
Q 1175 2209 1959 2209 
L 2766 2209 
L 2766 2266 
Q 2766 2663 2505 2880 
Q 2244 3097 1772 3097 
Q 1472 3097 1187 3025 
Q 903 2953 641 2809 
L 641 3341 
Q 956 3463 1253 3523 
Q 1550 3584 1831 3584 
Q 2591 3584 2966 3190 
Q 3341 2797 3341 1997 
z
" transform="scale(0.015625)"/>
      <path id="DejaVuSans-432" d="M 1156 1613 
L 1156 459 
L 1975 459 
Q 2369 459 2575 607 
Q 2781 756 2781 1038 
Q 2781 1319 2575 1466 
Q 2369 1613 1975 1613 
L 1156 1613 
z
M 1156 3041 
L 1156 2072 
L 1913 2072 
Q 2238 2072 2444 2201 
Q 2650 2331 2650 2563 
Q 2650 2794 2444 2917 
Q 2238 3041 1913 3041 
L 1156 3041 
z
M 581 3500 
L 1950 3500 
Q 2566 3500 2897 3275 
Q 3228 3050 3228 2634 
Q 3228 2313 3059 2123 
Q 2891 1934 2559 1888 
Q 2956 1813 3175 1575 
Q 3394 1338 3394 981 
Q 3394 513 3033 256 
Q 2672 0 2003 0 
L 581 0 
L 581 3500 
z
" transform="scale(0.015625)"/>
      <path id="DejaVuSans-438" d="M 3578 3500 
L 3578 0 
L 3006 0 
L 3006 2809 
L 1319 0 
L 581 0 
L 581 3500 
L 1153 3500 
L 1153 697 
L 2838 3500 
L 3578 3500 
z
" transform="scale(0.015625)"/>
      <path id="DejaVuSans-441" d="M 3122 3366 
L 3122 2828 
Q 2878 2963 2633 3030 
Q 2388 3097 2138 3097 
Q 1578 3097 1268 2742 
Q 959 2388 959 1747 
Q 959 1106 1268 751 
Q 1578 397 2138 397 
Q 2388 397 2633 464 
Q 2878 531 3122 666 
L 3122 134 
Q 2881 22 2623 -34 
Q 2366 -91 2075 -91 
Q 1284 -91 818 406 
Q 353 903 353 1747 
Q 353 2603 823 3093 
Q 1294 3584 2113 3584 
Q 2378 3584 2631 3529 
Q 2884 3475 3122 3366 
z
" transform="scale(0.015625)"/>
      <path id="DejaVuSans-43c" d="M 581 3500 
L 1422 3500 
L 2416 1156 
L 3413 3500 
L 4247 3500 
L 4247 0 
L 3669 0 
L 3669 2950 
L 2703 672 
L 2128 672 
L 1159 2950 
L 1159 0 
L 581 0 
L 581 3500 
z
" transform="scale(0.015625)"/>
      <path id="DejaVuSans-43e" d="M 1959 3097 
Q 1497 3097 1228 2736 
Q 959 2375 959 1747 
Q 959 1119 1226 758 
Q 1494 397 1959 397 
Q 2419 397 2687 759 
Q 2956 1122 2956 1747 
Q 2956 2369 2687 2733 
Q 2419 3097 1959 3097 
z
M 1959 3584 
Q 2709 3584 3137 3096 
Q 3566 2609 3566 1747 
Q 3566 888 3137 398 
Q 2709 -91 1959 -91 
Q 1206 -91 779 398 
Q 353 888 353 1747 
Q 353 2609 779 3096 
Q 1206 3584 1959 3584 
z
" transform="scale(0.015625)"/>
      <path id="DejaVuSans-442" d="M 188 3500 
L 3541 3500 
L 3541 3041 
L 2147 3041 
L 2147 0 
L 1581 0 
L 1581 3041 
L 188 3041 
L 188 3500 
z
" transform="scale(0.015625)"/>
      <path id="DejaVuSans-44c" d="M 2781 1038 
Q 2781 1319 2576 1466 
Q 2372 1613 1978 1613 
L 1159 1613 
L 1159 459 
L 1978 459 
Q 2372 459 2576 607 
Q 2781 756 2781 1038 
z
M 581 3500 
L 1159 3500 
L 1159 2072 
L 2003 2072 
Q 2672 2072 3033 1817 
Q 3394 1563 3394 1038 
Q 3394 513 3033 256 
Q 2672 0 2003 0 
L 581 0 
L 581 3500 
z
" transform="scale(0.015625)"/>
      <path id="DejaVuSans-20" transform="scale(0.015625)"/>
      <path id="DejaVuSans-43f" d="M 3603 3500 
L 3603 0 
L 3025 0 
L 3025 3041 
L 1159 3041 
L 1159 0 
L 581 0 
L 581 3500 
L 3603 3500 
z
" transform="scale(0.015625)"/>
      <path id="DejaVuSans-440" d="M 1159 525 
L 1159 -1331 
L 581 -1331 
L 581 3500 
L 1159 3500 
L 1159 2969 
Q 1341 3281 1617 3432 
Q 1894 3584 2278 3584 
Q 2916 3584 3314 3078 
Q 3713 2572 3713 1747 
Q 3713 922 3314 415 
Q 2916 -91 2278 -91 
Q 1894 -91 1617 61 
Q 1341 213 1159 525 
z
M 3116 1747 
Q 3116 2381 2855 2742 
Q 2594 3103 2138 3103 
Q 1681 3103 1420 2742 
Q 1159 2381 1159 1747 
Q 1159 1113 1420 752 
Q 1681 391 2138 391 
Q 2594 391 2855 752 
Q 3116 1113 3116 1747 
z
" transform="scale(0.015625)"/>
      <path id="DejaVuSans-435" d="M 3597 1894 
L 3597 1613 
L 953 1613 
Q 991 1019 1311 708 
Q 1631 397 2203 397 
Q 2534 397 2845 478 
Q 3156 559 3463 722 
L 3463 178 
Q 3153 47 2828 -22 
Q 2503 -91 2169 -91 
Q 1331 -91 842 396 
Q 353 884 353 1716 
Q 353 2575 817 3079 
Q 1281 3584 2069 3584 
Q 2775 3584 3186 3129 
Q 3597 2675 3597 1894 
z
M 3022 2063 
Q 3016 2534 2758 2815 
Q 2500 3097 2075 3097 
Q 1594 3097 1305 2825 
Q 1016 2553 972 2059 
L 3022 2063 
z
" transform="scale(0.015625)"/>
      <path id="DejaVuSans-447" d="M 2625 0 
L 2625 1472 
L 1553 1472 
Q 1075 1472 756 1769 
Q 469 2038 469 2613 
L 469 3500 
L 1044 3500 
L 1044 2666 
Q 1044 2300 1206 2116 
Q 1372 1931 1697 1931 
L 2625 1931 
L 2625 3500 
L 3200 3500 
L 3200 0 
L 2625 0 
z
" transform="scale(0.015625)"/>
      <path id="DejaVuSans-43a" d="M 581 3500 
L 1153 3500 
L 1153 1856 
L 2775 3500 
L 3481 3500 
L 2144 2147 
L 3653 0 
L 3009 0 
L 1769 1766 
L 1153 1141 
L 1153 0 
L 581 0 
L 581 3500 
z
" transform="scale(0.015625)"/>
      <path id="DejaVuSans-433" d="M 581 0 
L 581 3500 
L 3050 3500 
L 3050 3041 
L 1159 3041 
L 1159 0 
L 581 0 
z
" transform="scale(0.015625)"/>
      <path id="DejaVuSans-44f" d="M 1181 2491 
Q 1181 2231 1381 2084 
Q 1581 1938 1953 1938 
L 2728 1938 
L 2728 3041 
L 1953 3041 
Q 1581 3041 1381 2897 
Q 1181 2753 1181 2491 
z
M 363 0 
L 1431 1534 
Q 1069 1616 828 1830 
Q 588 2044 588 2491 
Q 588 2997 923 3248 
Q 1259 3500 1938 3500 
L 3306 3500 
L 3306 0 
L 2728 0 
L 2728 1478 
L 2013 1478 
L 981 0 
L 363 0 
z
" transform="scale(0.015625)"/>
      <path id="DejaVuSans-434" d="M 1384 459 
L 3053 459 
L 3053 3041 
L 1844 3041 
L 1844 2603 
Q 1844 1316 1475 628 
L 1384 459 
z
M 550 459 
Q 834 584 959 850 
Q 1266 1509 1266 2838 
L 1266 3500 
L 3631 3500 
L 3631 459 
L 4091 459 
L 4091 -884 
L 3631 -884 
L 3631 0 
L 794 0 
L 794 -884 
L 334 -884 
L 334 459 
L 550 459 
z
" transform="scale(0.015625)"/>
     </defs>
     <use xlink:href="#DejaVuSans-417"/>
     <use xlink:href="#DejaVuSans-430" x="64.111328"/>
     <use xlink:href="#DejaVuSans-432" x="125.390625"/>
     <use xlink:href="#DejaVuSans-438" x="184.326172"/>
     <use xlink:href="#DejaVuSans-441" x="249.316406"/>
     <use xlink:href="#DejaVuSans-438" x="304.296875"/>
     <use xlink:href="#DejaVuSans-43c" x="369.287109"/>
     <use xlink:href="#DejaVuSans-43e" x="444.726562"/>
     <use xlink:href="#DejaVuSans-441" x="505.908203"/>
     <use xlink:href="#DejaVuSans-442" x="560.888672"/>
     <use xlink:href="#DejaVuSans-44c" x="619.140625"/>
     <use xlink:href="#DejaVuSans-20" x="678.076172"/>
     <use xlink:href="#DejaVuSans-43f" x="709.863281"/>
     <use xlink:href="#DejaVuSans-430" x="775.244141"/>
     <use xlink:href="#DejaVuSans-440" x="836.523438"/>
     <use xlink:href="#DejaVuSans-430" x="900"/>
     <use xlink:href="#DejaVuSans-43c" x="961.279297"/>
     <use xlink:href="#DejaVuSans-435" x="1036.71875"/>
     <use xlink:href="#DejaVuSans-442" x="1098.242188"/>
     <use xlink:href="#DejaVuSans-440" x="1156.494141"/>
     <use xlink:href="#DejaVuSans-430" x="1219.970703"/>
     <use xlink:href="#DejaVuSans-20" x="1281.25"/>
     <use xlink:href="#DejaVuSans-442" x="1313.037109"/>
     <use xlink:href="#DejaVuSans-435" x="1371.289062"/>
     <use xlink:href="#DejaVuSans-442" x="1432.8125"/>
     <use xlink:href="#DejaVuSans-440" x="1491.064453"/>
     <use xlink:href="#DejaVuSans-430" x="1554.541016"/>
     <use xlink:href="#DejaVuSans-442" x="1615.820312"/>
     <use xlink:href="#DejaVuSans-438" x="1674.072266"/>
     <use xlink:href="#DejaVuSans-447" x="1739.0625"/>
     <use xlink:href="#DejaVuSans-435" x="1798.144531"/>
     <use xlink:href="#DejaVuSans-441" x="1859.667969"/>
     <use xlink:href="#DejaVuSans-43a" x="1914.648438"/>
     <use xlink:href="#DejaVuSans-43e" x="1975.048828"/>
     <use xlink:href="#DejaVuSans-433" x="2036.230469"/>
     <use xlink:href="#DejaVuSans-43e" x="2088.769531"/>
     <use xlink:href="#DejaVuSans-20" x="2149.951172"/>
     <use xlink:href="#DejaVuSans-43f" x="2181.738281"/>
     <use xlink:href="#DejaVuSans-43e" x="2247.119141"/>
     <use xlink:href="#DejaVuSans-440" x="2308.300781"/>
     <use xlink:href="#DejaVuSans-44f" x="2371.777344"/>
     <use xlink:href="#DejaVuSans-434" x="2431.933594"/>
     <use xlink:href="#DejaVuSans-43a" x="2501.074219"/>
     <use xlink:href="#DejaVuSans-430" x="2561.474609"/>
     <use xlink:href="#DejaVuSans-20" x="2622.753906"/>
    </g>
    <!--  от количества колец -->
    <g transform="translate(168.092812 35.472) scale(0.12 -0.12)">
     <defs>
      <path id="DejaVuSans-43b" d="M 238 0 
L 238 478 
Q 806 566 981 959 
Q 1194 1513 1194 2928 
L 1194 3500 
L 3559 3500 
L 3559 0 
L 2984 0 
L 2984 3041 
L 1769 3041 
L 1769 2694 
Q 1769 1344 1494 738 
Q 1200 91 238 0 
z
" transform="scale(0.015625)"/>
      <path id="DejaVuSans-446" d="M 3603 0 
L 581 0 
L 581 3500 
L 1159 3500 
L 1159 459 
L 3025 459 
L 3025 3500 
L 3603 3500 
L 3603 459 
L 4063 459 
L 4063 -884 
L 3603 -884 
L 3603 0 
z
" transform="scale(0.015625)"/>
     </defs>
     <use xlink:href="#DejaVuSans-20"/>
     <use xlink:href="#DejaVuSans-43e" x="31.787109"/>
     <use xlink:href="#DejaVuSans-442" x="92.96875"/>
     <use xlink:href="#DejaVuSans-20" x="151.220703"/>
     <use xlink:href="#DejaVuSans-43a" x="183.007812"/>
     <use xlink:href="#DejaVuSans-43e" x="243.408203"/>
     <use xlink:href="#DejaVuSans-43b" x="304.589844"/>
     <use xlink:href="#DejaVuSans-438" x="368.505859"/>
     <use xlink:href="#DejaVuSans-447" x="433.496094"/>
     <use xlink:href="#DejaVuSans-435" x="492.578125"/>
     <use xlink:href="#DejaVuSans-441" x="554.101562"/>
     <use xlink:href="#DejaVuSans-442" x="609.082031"/>
     <use xlink:href="#DejaVuSans-432" x="667.333984"/>
     <use xlink:href="#DejaVuSans-430" x="726.269531"/>
     <use xlink:href="#DejaVuSans-20" x="787.548828"/>
     <use xlink:href="#DejaVuSans-43a" x="819.335938"/>
     <use xlink:href="#DejaVuSans-43e" x="879.736328"/>
     <use xlink:href="#DejaVuSans-43b" x="940.917969"/>
     <use xlink:href="#DejaVuSans-435" x="1004.833984"/>
     <use xlink:href="#DejaVuSans-446" x="1066.357422"/>
    </g>
   </g>
  </g>
 </g>
 <defs>
  <clipPath id="pdfb3f3748a">
   <rect x="57.6" y="41.472" width="357.12" height="266.112"/>
  </clipPath>
 </defs>
</svg>
